<svg width="27" height="32" viewBox="0 0 27 32" fill="none" xmlns="http://www.w3.org/2000/svg">
<path d="M13.5 16C17.4453 16 20.6429 12.6426 20.6429 8.5C20.6429 4.35742 17.4453 1 13.5 1C9.55469 1 6.35714 4.35742 6.35714 8.5C6.35714 12.6426 9.55469 16 13.5 16ZM18.846 17.9102L16.1786 29.125L14.3929 21.1562L16.1786 17.875H10.8214L12.6071 21.1562L10.8214 29.125L8.15402 17.9102C4.17522 18.1094 1 21.5254 1 25.75V28.1875C1 29.7402 2.19978 31 3.67857 31H23.3214C24.8002 31 26 29.7402 26 28.1875V25.75C26 21.5254 22.8248 18.1094 18.846 17.9102Z" stroke="#8E8E9C" stroke-width="1.5"/>
</svg>
