<svg width="232" height="174" viewBox="0 0 232 174" fill="none" xmlns="http://www.w3.org/2000/svg">
<path d="M141.681 4.06323C141.756 4.05648 141.992 4.02122 142.343 3.96646L142.335 3.57039L143.344 3.55465L143.348 3.80443C145.066 3.5239 147.757 3.07085 149.818 2.72281L149.893 2.28404L150.52 2.39201L150.529 0L151.537 0.0044683L151.528 2.16852H151.597V2.4205L152.732 2.22697L152.831 2.79108L154.52 3.08284L158.406 2.27649L158.612 3.26589L158.021 3.38815L158.173 3.38514L158.18 3.71521L158.925 3.84494L158.755 4.84108L158.2 4.74505L158.22 5.67892L221.61 19.2165L221.71 18.6352L226.01 19.3785L225.998 18.762L227.006 18.7425L227.023 19.554L229.279 19.9441L229.31 17.9729L230.319 17.9894L230.285 20.1174L230.741 20.1969L230.581 21.1322L230.871 21.1938L230.661 22.1832L230.254 22.0961L230.202 25.3875L230.851 25.5L230.681 26.4962L230.187 26.4106L230.179 26.9004L231.524 27.1585L231.334 28.1516L230.162 27.9258L228.455 136.67L229.667 136.347L229.923 137.325L228.438 137.719L228.416 139.14L228.751 139.05L229.011 140.027L228.4 140.192L228.351 143.268L229.654 142.89L229.935 143.858L228.335 144.323L228.335 144.347L228.502 144.301L228.771 145.274L228.318 145.398L228.279 147.878L227.27 147.861L227.305 145.679L225.057 146.3L225.051 146.648L224.043 146.636L224.046 146.419L223.829 145.632L222.713 145.957L222.731 147.193L221.723 147.206L221.708 146.249L217.432 147.492L217.425 148.521L216.416 148.512L216.422 147.785L162.725 163.39L162.729 163.605L161.955 163.614L157.05 165.04L157.018 166.779L157.178 167.553L157.003 167.589L156.995 167.952L155.987 167.936L155.989 167.804L152.558 168.529L154.418 169.133L154.106 170.094L150.958 169.072L150.845 169.443L150.822 169.435L150.806 173.042L149.799 173.037L149.814 169.251L149.271 169.238L149.272 169.222L148.557 169.373L148.414 168.688C146.499 168.096 143.91 167.301 142.408 166.866L142.392 167.775L141.384 167.759L141.404 166.587C141.312 166.565 141.248 166.551 141.216 166.548L141.277 165.925C128.481 161.767 107.632 154.992 85.8296 147.914L85.8154 148.158L84.8065 148.099L84.8387 147.591L75.9007 144.69L75.8797 145.025L74.8716 144.966L74.909 144.368C61.9865 140.173 49.148 136.008 37.8412 132.342L37.0956 132.313L37.1046 132.103C24.0815 127.881 13.1588 124.345 6.61278 122.237C6.55502 122.874 6.49265 123.208 6.42365 123.201L6.5174 122.207L3.5314 121.247C3.45564 122.51 3.37009 123.211 3.27107 123.201L3.36555 122.197C3.37082 122.197 3.37376 121.852 3.37376 121.196C1.25401 120.516 0.0479889 120.134 -3.05176e-05 120.129L0.0988617 119.125C0.153625 119.13 1.32153 119.499 3.37303 120.155C3.37154 119.131 3.36703 117.749 3.36029 116.069C1.65009 115.567 0.700562 115.293 0.656311 115.289L0.750793 114.284C0.799561 114.289 1.71916 114.553 3.35736 115.031C3.28685 97.5859 3.01746 53.2053 2.92444 37.9485C1.38751 38.2418 0.513733 38.4015 0.464966 38.397L0.559464 37.3927C0.59697 37.3964 1.43565 37.2397 2.91858 36.9546L2.90877 35.438C1.13556 35.7928 0.143936 35.9832 0.0899353 35.978L0.188965 34.9736C0.227966 34.9774 1.18655 34.7891 2.90276 34.4433L2.89221 32.6934L3.90044 32.6896L3.90865 34.24L6.0524 33.8043L6.04494 32.6934L7.05374 32.6896L7.05829 33.5987C30.6036 28.7914 108.461 12.642 142.373 5.60465L142.362 4.98209C142.052 5.03084 141.842 5.06082 141.767 5.06757L141.681 4.06323ZM150.514 3.62892C148.359 3.99347 145.247 4.51706 143.367 4.82159L143.378 5.39537L149.521 4.12095L149.582 3.83373L150.233 3.97247L150.513 3.91548L150.514 3.62892ZM3.58458 120.223L6.52649 121.166C6.52724 120.285 6.52342 118.857 6.51666 116.996L3.71805 116.173C3.67905 117.769 3.63484 119.132 3.58458 120.223ZM6.68544 121.218C11.8986 122.895 19.8931 125.479 29.5242 128.597L29.7754 127.865L30.8713 128.245L30.9471 124.702L30.4288 124.548C30.4048 124.736 30.3793 124.828 30.3523 124.826L30.3861 124.535L29.6037 124.302L29.7342 123.864L28.8806 123.61C28.8454 123.99 28.8056 124.186 28.7635 124.182L28.8281 123.595L25.8466 122.711C25.8076 123.291 25.764 123.603 25.716 123.597L25.8151 122.702L24.2555 122.24C24.2165 122.715 24.173 122.973 24.1236 122.968L24.206 122.225L21.5567 121.441C21.5199 121.917 21.4802 122.175 21.436 122.171L21.5148 121.428L19.9651 120.97C19.9276 121.359 19.8885 121.562 19.8442 121.558L19.9081 120.953L17.6533 120.286C17.612 120.939 17.5655 121.284 17.5122 121.278L17.6151 120.275L16.0639 119.815C16.0211 120.382 15.9723 120.683 15.919 120.678L16.0128 119.8L13.3477 119.012C13.3125 119.444 13.2735 119.677 13.23 119.672L13.2997 118.998L11.7591 118.543C11.7223 118.905 11.6826 119.092 11.6391 119.089L11.6968 118.525L9.40085 117.846C9.37234 118.104 9.34009 118.248 9.30708 118.245L9.34825 117.831L7.8053 117.375C7.77754 117.57 7.7476 117.678 7.71535 117.675L7.74684 117.358L6.84674 117.093C6.79948 118.798 6.7462 120.193 6.68544 121.218ZM38.2807 131.434C49.4601 135.055 62.12 139.162 74.8678 143.299L74.9991 142.908L75.2886 138.235L74.9668 138.141L75.1963 137.353L72.247 136.477C72.2133 136.709 72.1765 136.83 72.1375 136.826L72.166 136.452L69.4342 135.642C69.3689 136.918 69.2894 137.604 69.1964 137.597L69.2714 136.588L69.2624 135.591L62.2183 133.5C62.1576 134.462 62.087 134.988 62.0045 134.982L62.0795 133.973L62.0751 133.457L57.807 132.191C57.7583 133.107 57.7028 133.604 57.6391 133.598L57.7426 132.593C57.7463 132.593 57.7486 132.445 57.7493 132.173L55.8238 131.602C55.7743 132.382 55.7195 132.787 55.6565 132.78L55.7593 131.776C55.763 131.776 55.766 131.701 55.769 131.586L49.5396 129.737C49.496 130.386 49.448 130.735 49.394 130.73L49.4923 129.726V129.723L43.6671 127.994C43.6214 128.722 43.5703 129.102 43.5111 129.096L43.6064 128.091C43.6079 128.091 43.6093 128.047 43.6109 127.979L39.045 126.624C39.0113 126.957 38.9753 127.138 38.9355 127.134L38.985 126.606L38.571 126.483L38.436 126.938L38.3317 126.907L38.1697 130.77L38.4727 130.876L38.2807 131.434ZM86.3637 147.029C108.003 154.053 128.67 160.767 141.433 164.914L141.52 159.853L141.457 159.843L141.534 159.025L141.549 158.145L142.557 158.162L142.542 159.071C144.186 159.499 147.436 160.417 149.49 161.001L149.531 159.467L149.623 159.468L135.377 155.233C135.329 155.884 135.276 156.223 135.218 156.217L135.312 155.214L132.526 154.386C132.457 156.207 132.374 157.207 132.274 157.198L132.373 156.193L132.359 154.337L122.003 151.258C121.948 152.15 121.886 152.639 121.816 152.632L121.91 151.628L121.907 151.23L111.216 148.053C111.162 148.904 111.1 149.369 111.03 149.362L111.12 148.358L111.118 148.023L101.754 145.242C101.697 146.232 101.629 146.756 101.552 146.75L101.639 145.742L101.635 145.206L93.2547 142.716C93.1977 143.65 93.131 144.141 93.0545 144.135L93.1385 143.126L93.134 142.681L86.8167 140.804L86.603 141.543L86.2317 141.434L85.9309 146.28L86.546 146.486L86.3637 147.029ZM142.436 165.24L149.318 167.475L149.457 162.232L149.355 162.261L149.278 161.989C147.304 161.425 144.172 160.537 142.524 160.101L142.436 165.24ZM3.74133 115.145L6.513 115.958C6.44925 98.993 6.16487 52.2594 6.07335 37.3424L3.9252 37.7565C3.99121 52.7275 4.14563 96.8778 3.74133 115.145ZM6.87296 116.064L7.83459 116.346C7.92386 112.605 7.44382 76.0613 7.13403 53.4536C7.18729 73.4937 7.1985 102.713 6.87296 116.064ZM7.89378 116.364L9.41872 116.813C9.47047 111.1 8.69272 48.2502 8.55246 36.8616L7.90579 36.9877C7.98831 46.7403 8.46761 106.735 7.89378 116.364ZM9.47586 116.829L11.7666 117.505C11.8581 110.754 10.9662 46.3397 10.8289 36.4176L9.54999 36.6666C9.62125 47.1874 9.99718 106.854 9.47586 116.829ZM11.8296 117.525L13.3477 117.973C13.3793 110.664 12.6051 46.8731 12.4739 36.0958L11.8288 36.2218C11.9038 45.2228 12.3929 106.901 11.8296 117.525ZM13.41 117.991L16.0541 118.772C16.1208 110.341 15.2365 45.0458 15.1083 35.5804L13.4737 35.9008C13.539 45.7885 13.9208 107.053 13.41 117.991ZM16.1238 118.792L17.6307 119.238C17.639 110.281 16.8777 45.6639 16.7547 35.2579L16.1096 35.3839C16.1786 43.9402 16.6699 107.059 16.1238 118.792ZM17.7043 119.26L19.9762 119.932C20.0662 112.753 19.1685 44.8936 19.035 34.8101L17.7545 35.0614C17.8168 44.6085 18.1978 107.194 17.7043 119.26ZM20.0341 119.949L21.5574 120.399C21.5867 112.54 20.8096 45.5386 20.6813 34.4868L20.0356 34.6136C20.1076 43.7744 20.5997 108.866 20.0341 119.949ZM21.6153 120.416L24.2616 121.2C24.3448 113.271 23.4604 44.8793 23.3194 33.9678L21.6805 34.2903C21.7442 44.433 22.1284 108.947 21.6153 120.416ZM24.3185 121.217L25.8427 121.667C25.863 112.999 25.0986 45.4704 24.9643 33.6445L24.3185 33.772C24.3958 43.773 24.8781 109.628 24.3185 121.217ZM25.9005 121.685L28.8994 122.573C28.9939 115.289 28.0968 44.0737 27.958 33.0556L25.9635 33.448C26.0303 44.4488 26.4045 109.678 25.9005 121.685ZM28.9482 122.588L30.4836 123.042C30.5166 114.93 29.7365 44.7466 29.6022 32.7316L28.9571 32.8584C29.0328 42.9208 29.5212 111.247 28.9482 122.588ZM30.5301 123.056L31.6559 123.39L31.983 123.396L31.9815 123.486L34.7216 124.298C34.7741 117.423 33.9685 43.6521 33.8402 31.896L30.6021 32.5351C30.6688 43.6619 31.0484 111.248 30.5301 123.056ZM34.7561 124.309L36.2855 124.761L36.3515 124.181C36.4977 124.197 35.6344 44.895 35.4889 31.5712L34.8401 31.6995C34.9031 42.4656 35.2969 113.06 34.7561 124.309ZM36.326 124.774L37.4819 125.116L38.4052 125.152L38.3955 125.387L39.0368 125.577C39.0406 118.436 38.2275 43.1001 38.0977 31.0567L36.4865 31.3747C36.5585 43.6897 36.9688 118.658 36.326 124.774ZM39.1171 125.601L41.002 126.159L41.0673 125.473C41.1603 125.482 40.282 44.1052 40.1372 30.6546L39.099 30.8594C39.1845 41.9315 39.7111 114.168 39.1171 125.601ZM41.0591 126.176L43.6124 126.933C43.5801 116.673 42.7865 41.2016 42.6702 30.1543L41.1385 30.4566C41.2338 42.9494 41.7949 120.764 41.0591 126.176ZM43.7181 126.965L45.6331 127.532L45.6436 127.418C45.7358 127.426 44.8455 42.5983 44.7105 29.7515L43.6731 29.9563C43.7496 40.1313 44.2769 113.509 43.7181 126.965ZM45.6879 127.548L49.4991 128.679C49.4743 118.831 48.6889 41.819 48.5592 28.9909L45.7134 29.5535C45.7989 41.0644 46.3495 118.522 45.6879 127.548ZM49.5935 128.707L51.5063 129.274L51.5296 129.03C51.6226 129.039 50.7479 43.1639 50.5994 28.5881L49.5613 28.7929C49.6476 40.7246 50.1584 115.448 49.5935 128.707ZM51.5588 129.29L55.7766 130.541C55.7863 119.722 54.9169 40.9001 54.7714 27.763L51.6 28.3901C51.696 41.7402 52.2316 120.825 51.5588 129.29ZM55.8755 130.57L57.7478 131.126C57.7095 119.487 56.9467 41.4259 56.8094 27.3595L55.7736 27.565C55.8726 39.826 56.4674 116.559 55.8755 130.57ZM57.8528 131.157L62.0646 132.406C61.9446 120.228 61.1209 40.0127 60.9829 26.5351L57.8107 27.1622C57.9015 40.4771 58.3936 116.542 57.8528 131.157ZM62.2723 132.469L65.0161 133.283L65.0199 133.232C65.0266 133.232 64.08 41.0344 63.9255 25.9524L61.9903 26.3356C62.1253 38.9656 62.9346 117.401 62.2723 132.469ZM65.1212 133.313L69.2526 134.54C69.1183 120.572 68.3143 39.2687 68.1748 25.1122L64.9329 25.7535C65.0806 39.4637 65.9455 123.627 65.1212 133.313ZM69.4792 134.607L72.2095 135.418C72.1488 128.811 71.2704 39.9722 71.1181 24.5294L69.1821 24.9127C69.3202 38.2928 70.1123 118.115 69.4792 134.607ZM72.3415 135.456L75.4042 136.366L75.4093 136.284L76.4175 136.344L76.398 136.661L76.4513 136.677C76.3298 123.826 75.4559 34.0871 75.3546 23.6901L72.1255 24.3299C72.2748 38.8134 73.1134 123.661 72.3415 135.456ZM76.647 136.735L79.3968 137.551L79.4051 137.44C79.4111 137.44 78.4172 35.2984 78.2995 23.1072L76.3627 23.4905C76.458 32.8404 77.3438 120.772 76.647 136.735ZM79.4936 137.58L84.3002 139.007C84.1974 127.601 83.3341 35.7567 83.2065 22.1351L79.3061 22.9085C79.4164 33.61 80.3569 127.615 79.4936 137.58ZM84.4727 139.058L85.7666 139.442L86.3532 139.477L86.3442 139.614L87.2128 139.872L87.2526 139.373C87.2563 139.373 86.2947 36.9119 86.1507 21.5523L84.2139 21.9356C84.3392 34.6511 85.1913 124.068 84.4727 139.058ZM87.2953 139.896L93.125 141.628C93.0087 128.567 92.1514 33.6985 92.0306 20.3867L87.158 21.352C87.2975 35.5092 88.2149 132.351 87.2953 139.896ZM93.3065 141.681L96.0624 142.5L96.0803 142.284C96.0833 142.284 95.1128 35.0667 94.9747 19.8031L93.0387 20.1871C93.1557 32.5359 94.0116 125.389 93.3065 141.681ZM96.1479 142.525L101.625 144.152L100.534 18.7012L95.9828 19.6035C96.1148 33.511 97.0247 132.817 96.1479 142.525ZM101.805 144.205L104.568 145.027L104.581 144.866L103.479 18.1177L101.542 18.5017C101.675 33.1712 102.503 127.497 101.805 144.205ZM104.649 145.051L111.108 146.969L110.017 16.8207L104.487 17.9174C104.635 34.2071 105.512 134.912 104.649 145.051ZM111.271 147.017L114.028 147.837L114.063 147.45L112.962 16.2372L111.025 16.6212C111.168 32.9124 111.987 130.595 111.271 147.017ZM114.101 147.858L121.899 150.175C121.79 136.615 120.938 31.5307 120.801 14.6815L113.97 16.0376C114.127 34.0653 115.004 139.154 114.101 147.858ZM122.056 150.222L124.818 151.042L124.852 150.684C124.854 150.684 123.903 33.2942 123.747 14.0971L121.809 14.482C121.943 30.4214 122.78 133.127 122.056 150.222ZM124.887 151.063L132.351 153.281C132.203 134.044 131.35 24.996 131.253 12.6082L124.755 13.8977C124.906 31.8023 125.794 141.936 124.887 151.063ZM132.561 153.344L135.304 154.158L134.198 12.0239L132.259 12.408C132.352 23.7411 133.222 131.525 132.561 153.344ZM135.436 154.197L148.233 158.001L149.863 157.567L150.476 12.6202L150.156 12.5595L150.345 11.5664L150.481 11.5919L150.482 11.2701C147.575 11.8529 142.929 12.7778 142.495 12.8175L142.404 11.8132L142.488 11.8019L142.461 10.3827L135.205 11.8236C135.317 25.3913 136.213 137.782 135.436 154.197ZM150.867 158.784L151.791 159.059L151.503 160.027L150.862 159.836L150.859 160.782L156.149 159.276L156.152 159.155L156.555 159.161L157.007 159.032L157.046 159.168L157.16 159.17L157.153 159.545L157.216 159.763L162.009 158.318L162.647 158.126L162.657 158.797L162.709 162.345L216.43 146.732L216.452 143.954L216.455 143.582L216.812 143.474L222.012 141.907L222.65 141.714L222.66 142.385L222.698 144.911L224.076 144.511L224.126 141.346L223.699 141.462L223.576 141L223.347 140.996L223.382 139.064L213.601 141.665L213.569 143.964L212.561 143.952L212.589 141.933L211.96 142.101L211.935 143.964L210.927 143.952L210.948 142.37L200.218 145.223L200.166 149.193L199.158 149.181L199.206 145.493L198.578 145.659L198.532 149.193L197.524 149.181L197.566 145.928L193.67 146.964L193.629 150.164L192.62 150.152L192.658 147.233L192.03 147.4L191.994 150.164L190.986 150.152L191.018 147.669L188.773 148.266L188.725 152.135L187.717 152.123L187.762 148.536L187.134 148.702L187.091 152.135L186.082 152.123L186.122 148.971L172.768 152.522L172.708 157.69L171.7 157.682L171.756 152.791L171.129 152.958L171.073 157.69L170.065 157.682L170.117 153.227L153.1 157.752L153.095 158.334L152.086 158.327L152.089 158.02L150.868 158.345L150.867 158.784ZM151.597 3.69045L151.824 3.6424L151.597 3.60416V3.69045ZM154.536 4.11121L152.684 4.49599L157.207 5.46217L157.189 4.57027L154.536 4.11121ZM150.229 5.00611L143.397 6.42374L143.448 9.15636L150.497 7.75588L150.508 5.06537L150.229 5.00611ZM142.392 6.63228C108.377 13.6921 30.7296 29.7951 7.06355 34.6001L7.0687 35.645L7.89378 35.6382L7.8976 35.9878L8.53972 35.8617L8.52989 35.0847L9.53885 35.0764L9.54251 35.6652L10.8155 35.417L10.8109 35.1259L11.8199 35.1176L11.8206 35.2197L12.4619 35.0937L12.4559 34.5499L13.4641 34.5416L13.4663 34.8964L15.0946 34.5768L15.0932 34.4268L15.8882 34.4208L16.7426 34.2528L16.7381 33.835L17.7463 33.8267L17.7478 34.0548L19.0215 33.8043L19.0184 33.547L20.0265 33.5395L20.0274 33.6055L20.6693 33.4795L20.6633 32.9431L21.6715 32.9349L21.6737 33.2822L23.3059 32.9604L23.3006 32.4931L24.3089 32.4856L24.3111 32.7624L24.9532 32.6356L24.9448 31.8712L25.953 31.8668L25.9567 32.4376L27.9445 32.0453L27.9393 31.614L28.9482 31.6103L28.9496 31.8473L29.5917 31.7205L29.5835 30.9794L30.5923 30.9749L30.5953 31.5218L33.8289 30.8834L33.8229 30.3126L34.8311 30.3089L34.8341 30.6854L35.4769 30.5579L35.4679 29.6713L36.4767 29.6668L36.4805 30.3599L38.0864 30.0425L38.0797 29.429L39.0878 29.4207L39.0916 29.8438L40.1267 29.6397L40.1169 28.7734L41.1251 28.7652L41.1303 29.441L42.6598 29.138L42.656 28.7929L43.6648 28.7847L43.6656 28.9392L44.7 28.7352L44.694 28.1186L45.7021 28.1103L45.7051 28.5364L48.5487 27.9731L48.5404 27.1803L49.5493 27.172L49.553 27.7751L50.5882 27.5695L50.5777 26.4849L51.5858 26.4766L51.5926 27.3715L54.761 26.7444L54.7519 25.9051L55.7593 25.8976L55.7653 26.5456L56.7997 26.3409L56.7884 25.1775L57.7965 25.1692L57.8033 26.1421L60.9717 25.5142L60.9627 24.6112L61.9716 24.6029L61.979 25.3155L63.915 24.9322L63.9045 23.87L64.9126 23.8618L64.9217 24.7327L68.1643 24.0906L68.1538 23.0052L69.1619 22.997L69.1717 23.8911L71.1084 23.507L71.0956 22.2341L72.1045 22.2259L72.1158 23.3075L78.289 22.0841L78.2875 21.9086L79.2139 21.9003L83.1975 21.1113L83.1908 20.4317L84.1989 20.4234L84.2041 20.9117L86.1409 20.5277L86.1326 19.6201L87.1408 19.6118L87.1475 20.3274L92.0216 19.3613L92.0171 18.828L93.0252 18.8205L93.0282 19.1618L94.9665 18.7777L94.9589 17.9857L95.9671 17.9774L95.9724 18.5782L100.525 17.6751L100.516 16.5724L101.524 16.5642L101.533 17.4755L103.47 17.0908L103.458 15.6971L104.466 15.6889L104.478 16.8912L110.008 15.7938L109.996 14.3177L111.004 14.3094L111.015 15.5943L112.953 15.2095L112.937 13.4086L113.946 13.4003L113.96 15.0093L120.794 13.6539L120.783 12.3907L121.791 12.3825L121.801 13.4536L123.738 13.0688L123.725 11.4471L124.734 11.4389L124.746 12.8685L131.244 11.5791L131.243 11.4456L131.931 11.4426L134.19 10.9941L134.186 10.4652L135.194 10.4607L135.197 10.7945L142.442 9.35582L142.392 6.63228ZM6.05841 34.8034L3.91319 35.2369L3.92065 36.7611L6.06735 36.3441L6.05841 34.8034ZM151.597 7.53766L156.552 6.55354L156.745 7.54587L151.597 8.56904V10.0174L152.607 9.81342L152.681 10.1802L157.315 10.82L157.228 6.50028L151.597 5.29787V7.53766ZM150.492 8.78806L143.466 10.1839L143.493 11.6218C145.023 11.3338 147.819 10.7757 149.913 10.3557L149.989 9.80742L150.488 9.87642L150.492 8.78806ZM84.3324 140.879C84.3009 141.089 84.2672 141.195 84.2312 141.192L84.2574 140.857L76.5277 138.598C76.4842 139.013 76.4378 139.235 76.3853 139.231L76.4377 138.571L76.2825 138.525L76.0087 142.947L84.94 145.947L85.2378 141.143L84.3324 140.879ZM34.6098 125.796C34.6038 125.806 34.5985 125.827 34.5918 125.827L34.5963 125.791L31.9485 125.002L31.8727 128.592L37.1751 130.426L37.3341 126.609L34.6098 125.796ZM151.49 11.3113L151.488 11.7854L153.465 12.1649L153.473 11.4389L154.478 11.4471L151.597 11.0495V11.3113H151.49ZM151.483 12.8145L150.873 157.299L152.099 156.973L153.347 24.7012L152.134 24.5099L152.288 23.5138L153.356 23.6818L153.455 13.1926L151.483 12.8145ZM150.852 162.44L150.837 165.795L156.056 164.279L156.129 160.333L151.277 161.713L151.047 162.496L150.852 162.44ZM150.832 166.847L150.829 167.861L156.009 166.767L156.036 165.335L150.832 166.847ZM154.481 11.4479L154.473 12.3585L171.717 15.6709L171.778 10.4592L172.786 10.4667L172.723 15.8644L173.348 15.9844L173.412 10.4592L174.42 10.4667L174.354 16.1779L187.74 18.7485L187.795 14.3792L188.804 14.392L188.747 18.942L189.372 19.062L189.43 14.3792L190.439 14.392L190.378 19.2555L192.693 19.7003L192.698 19.2833L193.707 19.2953L193.699 19.8931L194.323 20.0131L194.333 19.2833L195.341 19.2953L195.33 20.2059L199.189 20.9477L199.236 17.3218L200.244 17.3331L200.195 21.1412L200.82 21.2613L200.871 17.3218L201.879 17.3331L201.826 21.454L212.585 23.5206L212.639 19.6103L213.647 19.6223L213.591 23.714L214.215 23.8341L214.273 19.6103L215.281 19.6223L215.221 24.0269L224.892 25.8841L224.844 25.4873L221.65 24.9352L221.82 23.9391L224.721 24.4394L224.295 20.8233L158.241 6.71703L158.327 10.9596L158.464 10.9783L158.325 11.9789L154.481 11.4479ZM154.463 13.3861L154.364 23.8408L171.591 26.5554L171.705 16.6985L154.463 13.3861ZM154.354 24.8594L153.196 147.545L170.233 143.304L170.473 122.565L155.233 125.011L155.075 124.014L170.485 121.541L170.548 116.154L155.558 118.472L155.404 117.476L170.56 115.132L171.113 67.6446L155.466 67.1435L155.496 66.1354L171.125 66.6357L171.188 61.196L154.804 60.4729L154.848 59.4648L171.2 60.1864L171.578 27.5741L154.354 24.8594ZM153.186 148.588L153.11 156.704L170.129 152.179L170.22 144.348L153.186 148.588ZM227.321 144.627L227.322 144.617L226.65 144.813L227.321 144.627ZM227.338 143.563L227.386 140.465L225.138 141.072L225.09 144.216L227.338 143.563ZM227.404 139.414L227.425 137.989L224.395 138.794L224.376 139.92L225.156 139.929L225.155 140.021L227.404 139.414ZM227.442 136.939L229.157 27.733L226.377 27.1997L226.236 35.1679L227.257 35.3292L227.103 36.3253L226.218 36.1858L224.547 130.227L224.685 130.789L224.537 130.825L224.414 137.744L227.442 136.939ZM229.172 26.7069L229.181 26.2358L227.151 25.8855L227.16 26.3199L229.172 26.7069ZM229.196 25.2135L229.248 21.8816L227.061 21.4143L227.13 24.8564L229.196 25.2135ZM223.4 138.013L223.523 131.077L213.713 133.52L213.615 140.616L223.4 138.013ZM223.542 130.032L225.212 36.0268L215.077 34.4306L214.696 62.1044L222.626 62.4547L222.581 63.4628L214.682 63.1147L214.615 68.0271L222.292 68.2731L222.261 69.2812L214.601 69.0367L214.058 108.403L221.545 107.245L221.699 108.241L214.045 109.425L213.974 114.566L220.89 113.455L221.047 114.452L213.96 115.589L213.727 132.475L223.542 130.032ZM225.23 35.0097L225.372 27.0062L215.206 25.053L215.091 33.4119L225.23 35.0097ZM191.033 146.621L191.13 139.142L188.88 139.703L188.787 147.218L191.033 146.621ZM191.144 138.098L191.39 119.209L189.13 119.572L188.893 138.658L191.144 138.098ZM191.404 118.186L191.473 112.916L189.208 113.267L189.143 118.549L191.404 118.186ZM191.486 111.895L192.056 68.3144L189.769 68.2416L189.221 112.245L191.486 111.895ZM192.07 67.3055L192.138 62.1201L189.846 62.0189L189.781 67.2327L192.07 67.3055ZM192.151 61.1105L192.546 30.8789L190.238 30.5152L189.859 61.0093L192.151 61.1105ZM192.56 29.861L192.679 20.7265L190.365 20.2824L190.25 29.4965L192.56 29.861ZM193.686 20.9199L193.566 30.0193L194.191 30.1183L194.31 21.04L193.686 20.9199ZM193.553 31.0372L193.159 61.1548L193.785 61.1825L194.178 31.1354L193.553 31.0372ZM193.146 62.1644L193.078 67.3377L193.704 67.358L193.771 62.1921L193.146 62.1644ZM193.065 68.3466L192.497 111.739L193.125 111.642L193.69 68.3669L193.065 68.3466ZM192.483 112.76L192.414 118.024L193.042 117.923L193.111 112.663L192.483 112.76ZM192.402 119.047L192.156 137.846L192.783 137.689L193.029 118.947L192.402 119.047ZM192.141 138.89L192.044 146.351L192.672 146.185L192.77 138.734L192.141 138.89ZM172.712 16.8912L172.597 26.7144L173.222 26.8127L173.336 17.0113L172.712 16.8912ZM172.586 27.733L172.208 60.2306L172.833 60.2584L173.211 27.8313L172.586 27.733ZM172.196 61.2402L172.133 66.6679L172.758 66.6882L172.821 61.268L172.196 61.2402ZM172.121 67.6761L171.571 114.976L172.198 114.878L172.746 67.697L172.121 67.6761ZM171.559 115.997L171.496 121.379L172.123 121.279L172.186 115.9L171.559 115.997ZM171.485 122.403L171.244 143.052L171.872 142.896L172.111 122.303L171.485 122.403ZM171.232 144.096L171.141 151.91L171.769 151.743L171.86 143.939L171.232 144.096ZM186.135 147.923L186.229 140.363L172.871 143.688L172.78 151.474L186.135 147.923ZM186.242 139.318L186.482 119.997L173.121 122.14L172.883 142.644L186.242 139.318ZM186.495 118.974L186.561 113.677L173.195 115.744L173.133 121.117L186.495 118.974ZM186.573 112.654L187.127 68.1568L173.754 67.7285L173.207 114.722L186.573 112.654ZM187.139 67.148L187.204 61.9026L173.829 61.3122L173.766 66.7204L187.139 67.148ZM187.217 60.893L187.6 30.0996L174.216 27.9895L173.841 60.3026L187.217 60.893ZM187.613 29.081L187.728 19.7753L174.342 17.2048L174.228 26.9717L187.613 29.081ZM188.734 19.9689L188.62 29.2392L189.244 29.3375L189.358 20.0889L188.734 19.9689ZM188.606 30.2578L188.225 60.9372L188.851 60.965L189.231 30.3569L188.606 30.2578ZM188.212 61.9469L188.147 67.1802L188.773 67.1997L188.839 61.9746L188.212 61.9469ZM188.135 68.1891L187.584 112.498L188.212 112.401L188.76 68.2093L188.135 68.1891ZM187.571 113.52L187.505 118.812L188.133 118.711L188.198 113.423L187.571 113.52ZM187.492 119.835L187.253 139.067L187.881 138.91L188.12 119.734L187.492 119.835ZM187.24 140.111L187.147 147.654L187.775 147.487L187.869 139.954L187.24 140.111ZM197.579 144.88L197.675 137.512L193.781 138.482L193.684 145.916L197.579 144.88ZM197.689 136.468L197.926 118.161L194.039 118.785L193.794 137.437L197.689 136.468ZM197.939 117.138L198.008 111.906L194.121 112.507L194.053 117.761L197.939 117.138ZM198.021 110.884L198.571 68.5236L194.698 68.3991L194.134 111.485L198.021 110.884ZM198.585 67.514L198.651 62.4074L194.779 62.2364L194.712 67.3902L198.585 67.514ZM198.664 61.3978L199.047 31.9035L195.184 31.2945L194.793 61.2268L198.664 61.3978ZM199.06 30.8849L199.176 21.9746L195.316 21.2335L195.197 30.2766L199.06 30.8849ZM200.182 22.1674L200.067 31.0439L200.692 31.1422L200.806 22.2874L200.182 22.1674ZM200.054 32.0618L199.671 61.442L200.298 61.4698L200.678 32.1601L200.054 32.0618ZM199.659 62.4517L199.593 67.547L200.218 67.5666L200.284 62.4794L199.659 62.4517ZM199.58 68.5551L199.032 110.727L199.659 110.631L200.205 68.5754L199.58 68.5551ZM199.018 111.75L198.951 116.975L199.578 116.875L199.645 111.652L199.018 111.75ZM198.937 117.999L198.7 136.217L199.328 136.06L199.564 117.898L198.937 117.999ZM198.687 137.26L198.591 144.611L199.22 144.444L199.315 137.104L198.687 137.26ZM210.962 141.321L211.061 134.18L200.326 136.853L200.231 144.175L210.962 141.321ZM211.076 133.136L211.311 116.014L200.574 117.735L200.34 135.808L211.076 133.136ZM211.325 114.99L211.396 109.835L200.656 111.496L200.588 116.713L211.325 114.99ZM211.41 108.813L211.959 68.9519L201.213 68.6077L200.67 110.474L211.41 108.813ZM211.973 67.9423L212.041 62.9977L201.292 62.5237L201.226 67.5988L211.973 67.9423ZM212.055 61.9881L212.44 34.0143L201.685 32.3191L201.306 61.514L212.055 61.9881ZM212.455 32.9964L212.571 24.5474L201.812 22.4809L201.698 31.3005L212.455 32.9964ZM213.577 24.7409L213.461 33.1547L214.085 33.2537L214.201 24.8602L213.577 24.7409ZM213.447 34.1733L213.063 62.0324L213.688 62.0601L214.071 34.2715L213.447 34.1733ZM213.049 63.0427L212.981 67.9753L213.607 67.9949L213.674 63.0705L213.049 63.0427ZM212.967 68.9842L212.421 108.656L213.048 108.56L213.592 69.0045L212.967 68.9842ZM212.407 109.679L212.336 114.828L212.964 114.727L213.034 109.581L212.407 109.679ZM212.322 115.852L212.087 132.884L212.715 132.728L212.949 115.751L212.322 115.852ZM212.073 133.928L211.974 141.052L212.603 140.885L212.7 133.772L212.073 133.928ZM226.048 21.1975L225.338 21.0467L225.76 24.6194L226.118 24.6817L226.048 21.1975ZM225.933 26.0844L226.147 26.1256L226.139 25.7108L225.883 25.6665L225.933 26.0844ZM157.43 163.879L161.706 162.637L161.659 159.48L157.454 160.747L157.43 163.879ZM217.44 146.438L221.693 145.203L221.662 143.068L217.457 144.335L217.44 146.438Z" fill="#026BAD"/>
</svg>
