<svg width="208" height="191" viewBox="0 0 208 191" fill="none" xmlns="http://www.w3.org/2000/svg">
<path d="M109.938 182.157L108.997 182.393V181.568L109.938 182.157ZM108.057 182.747L107.351 182.865V181.096L107.704 180.978L108.057 181.096V182.747ZM106.41 183.219L104.529 183.808L102.295 182.511L106.41 181.332V183.219ZM102.413 184.398L100.884 184.869V183.454L102.413 184.398ZM99.9435 185.105H99.8259L99.9435 183.219V185.105ZM98.4149 185.577L96.6512 186.048L96.8864 186.991L98.8852 186.402V189.821H99.8259V186.402L99.9435 186.52V190.41H100.884V186.991L102.177 187.817L102.648 186.991L100.884 185.93V185.812L103.588 184.987L106.41 186.638L106.528 188.288H107.469V187.109L107.704 187.345L108.057 186.873V186.991H108.409H108.997V183.454L110.291 182.983L110.055 182.157L114.288 184.398L114.523 183.926L114.994 184.162L115.347 183.219L109.82 180.389L134.512 173.079V174.376H135.453V172.843L136.276 172.607V174.612H137.217V172.254L152.032 168.009L151.914 169.896H152.855L152.972 167.656L153.678 167.42V169.306H154.618V167.184L157.205 166.477L157.088 169.188L158.028 169.306L158.146 166.123L161.791 165.062V166.241L162.731 166.359V164.826L163.437 164.59V166.594H164.378V164.354L175.665 160.935V162.704L176.606 162.822L176.724 160.699L177.311 160.464L177.194 162.586L178.135 162.704L178.252 160.228L192.244 156.101V156.337L193.538 156.691L193.42 160.699H194.361L194.478 157.752L195.536 157.516V159.285H196.477V157.516H196.83L196.947 157.044H197.065L196.947 159.52L197.888 159.638L198.006 156.809L200.122 156.219V158.577H201.063V155.865L202.474 155.512L202.239 154.569L201.18 154.922V153.507L201.533 153.389V153.154L201.415 152.682H201.651L201.298 151.739V150.442H201.533L201.651 150.088L202.826 149.852L202.591 148.909L201.768 149.145L201.651 148.909H201.768L201.533 147.966H201.415V147.259L200.475 147.141L200.357 148.32L198.594 148.791L198.358 148.673L203.062 38.7895L203.532 38.6716L205.413 39.0253L205.296 41.8549H206.236L206.354 39.2611L207.647 39.4969L207.882 38.5537H207.765L207.882 37.8463H207.647V37.6105L206.354 37.3747L206.471 34.663L207.765 34.8988L208 33.9556H207.882L208 33.366L206.471 33.0123V31.9512L207.647 32.187L207.882 31.2438L206.471 31.008L206.589 27.1173H205.648L205.531 30.7722L203.532 30.3006L203.65 26.292H202.709L202.591 30.0648H202.474L202.356 29.4753L201.768 29.5932L201.886 26.292L200.945 26.1741L200.828 29.7111L199.887 29.4753L200.122 25.3488H199.181L198.946 29.9469V30.1827L196.36 30.7722L183.308 27.7068V26.6457L182.367 26.5278V27.5889L181.544 27.3531V26.1741H180.604V27.1173L167.787 24.2877V23.2265L166.847 23.1086V24.0519L166.141 23.816V22.7549H165.201V23.5802L161.438 22.7549V21.8117L160.497 21.6938V22.5191L158.028 22.0475V20.9864H157.088V21.8117L156.382 21.5759V20.6327H155.441V21.458L140.038 17.921V16.9778H139.098V17.6852L138.04 17.4494V16.5062H137.099V17.2136L113.583 11.908L115.111 11.3185L114.759 10.3753L114.641 10.4932L114.406 9.9037L110.996 11.3185L109.467 10.9648V8.84259L110.761 9.07839L110.996 8.25309L109.467 7.89938L109.35 6.48457L110.761 5.89506L110.408 4.95185L110.291 5.06975L110.173 4.71605L109.35 5.06975V4.00864H108.409V5.42346L106.998 6.13086V1.65062H106.058V6.48457L105.235 6.83827L101.002 5.89506L102.413 5.30556L102.06 4.36235L100.649 4.95185V0H99.7083V4.48025H98.8852V5.42346L97.004 4.95185L96.7688 5.89506L98.0622 6.13086L96.416 6.83827V2.71173H95.4754V7.30988L94.7699 7.54568L93.0062 7.19198V4.59815H92.0656V6.95617L91.3601 6.83827L91.1249 7.66358L91.2425 7.78148L91.1249 8.25309L92.0656 8.48889V8.72469L88.4206 10.2574L88.8909 11.2006L92.1832 9.7858V12.4975L77.4856 18.8642V17.921H76.5449V19.3358L72.1945 21.2222V20.0432H71.2538V21.5759L5.64387 49.9901L5.52629 48.8111L4.58564 48.929L4.70322 50.3438L3.05709 50.2259L2.93951 48.6932H1.99887V49.6364H1.64613V50.108H1.05822V50.4617H0.352742V50.8154L0 51.0512L0.352742 51.8765V52.2302L0 52.466L0.117581 52.7018L0 52.8198L0.352742 53.6451H0.470322V54.942L0.117581 55.0599L0.235161 55.1778L0.117581 55.2957L0.235161 55.7673L0.117581 55.8852L0.470322 56.7105V57.0642H1.41097V56.3568L1.76371 56.2389H2.35161L5.29112 126.39L4.46806 126.036V125.919H4.35048L3.29226 125.447L2.82193 126.272L3.17467 126.39L2.93951 126.862L3.29226 127.098L3.17467 127.215L3.40984 127.333V127.451L2.93951 128.277L3.17467 128.512L2.93951 128.984L3.645 129.338V130.163L3.52742 130.045L3.05709 130.87L3.645 131.224V132.521H4.58564V131.696L4.8208 131.814V132.167H5.05596V133.346L5.99661 133.228V132.993H6.46693V132.049L8.11306 131.931V133.346L9.0537 133.228V132.403L18.3426 137.591L23.2809 140.302V140.42H23.5161L45.2685 152.564V152.682H45.6213L48.5608 154.451V155.158H49.5014V154.922L53.4992 157.162V157.87H54.4398V157.634L73.4878 168.245V170.367H74.4285V168.717L78.4262 170.957V171.428H79.2493L83.7173 173.904V175.319H84.658V174.494L90.6546 177.795L87.5975 178.62L87.8327 179.564L88.0678 179.446L88.1854 179.799L88.5382 179.681L88.6557 180.035L89.8315 179.799L89.4788 180.389L92.6535 182.157L92.5359 191H93.4765L93.5941 182.747L94.2996 183.219H94.0644L94.2996 184.162L94.6523 184.044L94.7699 184.515H95.0051V184.751L95.1227 184.633V191H96.0633V184.398L96.2985 184.28L98.4149 185.577ZM105.705 184.398L106.41 184.162V184.869L105.705 184.398ZM107.351 183.926L108.057 183.69V185.694L107.469 185.341L107.351 183.926ZM110.761 174.14L108.997 174.612L134.63 167.773L134.512 171.31L108.997 178.856V175.673L110.996 175.083L110.761 174.14ZM98.4149 177.559L97.3567 177.795L97.5919 178.738L99.0028 178.267V180.743L96.0633 179.092V178.031L98.2973 177.441L98.4149 177.559ZM101.002 177.795L101.354 177.677L105.587 179.917L100.884 181.214V178.856L101.472 179.092L101.942 178.267L101.002 177.795ZM103.471 177.088L106.41 176.262V178.62L103.471 177.088ZM107.351 176.027L108.057 175.909V179.21H107.586L107.351 179.092V176.027ZM108.057 169.778V173.079L107.351 173.315L106.998 18.7463L108.527 18.9821V22.637H109.467V19.2179L136.981 24.8772L136.629 36.4315L116.993 33.0123L116.287 31.1259L115.464 31.3617L116.052 33.366L115.934 47.9858L114.994 49.9901L115.347 23.816H114.406L112.172 169.424H113.112L114.406 86.4216L114.759 86.6574L116.17 83.592L135.688 83.7099L135.453 91.4914L135.218 111.652L116.405 113.303L115.582 111.181L114.759 111.535L115.464 113.539V113.775L115.347 127.451V127.805L114.523 130.163L115.347 130.517L116.287 127.805L135.1 125.447L134.865 142.189L115.699 145.962L114.876 144.783L114.053 145.254L114.994 146.669L114.759 159.874L114.288 161.407L115.111 161.76L115.582 160.464L134.747 155.865L134.63 166.005L108.997 172.843V169.778H108.057ZM99.1204 171.193V174.848L96.0633 173.315L96.416 18.6284L99.1204 17.5673L99.238 21.2222H99.8259L99.9435 171.193H99.1204ZM99.0028 183.572L98.8852 184.751L97.4743 183.926L99.0028 183.572ZM92.6535 169.542V171.546L84.5404 167.302L82.424 24.1698L92.1832 20.3969V22.7549H93.1238V19.9253L95.4754 19.1L95.1227 172.843L93.5941 172.018V169.542H92.6535ZM92.6535 173.197V173.433L89.4788 171.782L89.0085 172.607L92.6535 174.494V177.206L84.5404 172.725V168.952L92.6535 173.197ZM92.6535 178.974V181.096L90.1843 179.681L92.6535 178.974ZM93.5941 181.686V179.446L95.1227 180.271V182.511L93.5941 181.686ZM93.5941 176.97V174.965L95.1227 175.791V176.616L93.5941 176.97ZM93.5941 173.904V173.669L95.1227 174.494V174.73L93.5941 173.904ZM97.4743 175.909L96.0633 175.201V174.965L97.827 175.791L97.4743 175.909ZM200.24 155.158L198.006 155.748L198.123 154.451L200.24 153.743V155.158ZM197.065 155.983L196.477 156.219V154.922L197.183 154.686L197.065 155.983ZM195.536 156.219L194.596 155.983V155.394L195.536 155.158V156.219ZM193.89 149.852L193.302 149.735L193.185 150.206L178.487 154.215L178.84 145.726L190.245 143.25L190.833 143.839L190.598 149.97L191.539 150.088L196.124 39.1432H195.066L194.361 57.6537L193.538 56.8284L193.89 46.4531V46.2173L194.713 45.5099L194.125 44.8025L193.067 45.8636L182.72 44.0951L183.073 34.4272L198.594 37.6105L193.89 149.852ZM196.595 151.621L196.83 151.739L196.947 151.385L197.3 151.267L197.183 152.918L196.595 153.154V151.621ZM194.713 151.975L195.654 151.739V153.389L194.596 153.743L194.713 151.975ZM198.241 151.031L200.357 150.442L200.24 152.093L198.241 152.682V151.031ZM195.654 148.084V149.499L194.831 149.735L199.534 37.8463L200.592 38.0821L200.475 40.7938H201.415L201.533 38.2L202.239 38.4358L197.418 149.145L196.595 149.263V148.084H195.654ZM91.2425 14.7377L91.1249 15.4451L92.1832 15.6809V17.6852L88.303 19.3358L88.6557 20.1611L82.424 22.637L82.3064 18.6284H81.3657L81.4833 22.9907L77.4856 24.5235V20.279L91.2425 14.384L91.1249 14.7377H91.2425ZM93.1238 15.9167L95.4754 16.3883L93.1238 17.3315V15.9167ZM97.1215 16.742H97.2391L96.416 17.0957V16.9778L97.1215 16.742ZM100.767 17.4494L106.058 18.5105L106.41 173.551L100.884 174.965L100.767 17.4494ZM137.922 25.113L138.98 25.3488L138.745 36.6673L137.569 36.5494L137.922 25.113ZM139.921 25.5846L155.206 28.65L154.971 39.4969L139.686 36.9031L139.921 25.5846ZM156.147 28.8858L156.97 29.0037L155.441 91.2555L154.971 110.12L154.383 109.412L154.266 109.53L154.736 91.3735L154.854 84.0636L155.206 83.7099L154.854 83.4741L155.206 70.6228L155.677 70.2691L155.206 69.9154L155.559 53.9988L156.029 53.5272L155.559 53.0556L155.912 40.2043L156.382 39.7327L155.912 39.2611L156.147 28.8858ZM157.911 29.2395L160.38 29.7111L158.851 90.7839L157.323 159.874L154.736 160.581L156.382 91.2555L157.911 29.2395ZM161.321 29.9469L164.965 30.6543L164.73 41.0296H164.613L164.378 41.9728H164.73L164.495 53.5272L164.378 54.4704V54.5883L164.025 70.6228H163.084L162.967 71.566H164.025L163.907 74.7494H163.79L163.672 75.6926H163.907L163.79 83.0025H162.496V83.9457H163.672L163.555 90.4302L163.084 109.059L162.379 109.177L162.496 110.12L163.084 110.002L162.967 112.714L162.614 112.831L162.731 113.775L162.967 113.657V116.84L162.026 116.958L162.144 117.901L162.849 117.783V120.849L162.144 120.967L162.261 121.91H162.849L162.379 137.119L161.321 137.355L161.556 138.298L162.379 138.062V139.949L161.791 140.067L162.026 140.892H162.379L162.261 144.075L160.968 144.429L161.085 145.254L162.261 145.019L162.144 148.32L161.556 148.556L161.673 149.381H162.144L161.908 158.577L158.263 159.638L159.91 90.7839L161.321 29.9469ZM165.906 30.8901L166.729 31.008L166.494 41.2654L165.671 41.1475L165.906 30.8901ZM167.67 31.2438L180.369 33.8377L180.016 43.6235L167.435 41.5012L167.67 31.2438ZM181.309 34.0735L182.132 34.1914L181.78 43.8593L180.956 43.7414L181.309 34.0735ZM196.712 35.6062L183.073 32.7765L183.19 29.3574L198.829 32.8944L198.711 35.842L196.712 35.3704V35.6062ZM182.132 32.5407L181.309 32.4228L181.427 28.8858L182.25 29.1216L182.132 32.5407ZM180.369 32.187L167.67 29.5932L167.787 25.8204L180.486 28.65L180.369 32.187ZM166.729 29.3574L166.024 29.2395V25.4667L166.847 25.5846L166.729 29.3574ZM165.083 29.0037L161.321 28.2963L161.438 24.2877L165.083 25.2309V29.0037ZM160.38 28.0605L157.911 27.5889L158.028 23.5802L160.497 24.1698L160.38 28.0605ZM156.97 27.3531L156.265 27.2352V23.2265L157.088 23.3444L156.97 27.3531ZM155.324 26.9994L139.921 23.816L140.038 19.4537L155.324 22.9907V26.9994ZM138.98 23.6981L137.922 23.4623L138.04 18.9821L139.098 19.2179L138.98 23.6981ZM136.981 23.2265L110.878 17.8031L110.996 17.3315L109.467 16.9778V13.5586L111.114 12.8512L137.099 18.7463L136.981 23.2265ZM96.8864 14.9735L96.416 14.8556V12.1438L99.0028 10.9648L99.1204 14.7377L97.004 14.266L96.8864 14.9735ZM95.4754 14.6198L93.1238 14.1481V13.5586L95.4754 12.4975V14.6198ZM92.1832 14.0302H92.0656L92.1832 13.9123V14.0302ZM205.531 32.8944L203.414 32.3049V31.2438L205.531 31.7154V32.8944ZM202.474 32.187L201.651 31.9512L201.768 30.8901L202.474 31.008V32.187ZM200.71 31.7154L199.887 31.5975V31.008L200.71 30.7722V31.7154ZM198.946 31.3617L198.594 31.2438H198.946V31.3617ZM108.527 10.729L106.998 10.3753V8.25309L108.409 8.60679L108.527 10.729ZM106.058 10.1395L102.648 9.4321L105.822 8.01728H106.058V10.1395ZM99.0028 8.48889L96.416 7.89938L98.8852 6.83827L99.0028 8.48889ZM93.9469 8.96049L95.4754 9.3142V11.0827L93.1238 12.1438V9.3142L93.9469 8.96049ZM96.416 9.55L98.1798 9.9037L96.416 10.729V9.55ZM100.649 10.4932L106.058 11.6722V13.2049L101.237 15.2093L101.002 15.0914L102.413 14.5019L102.06 13.5586L100.649 14.1481V10.4932ZM106.998 11.908L108.527 12.2617L106.998 12.8512V11.908ZM199.769 33.1302L200.71 33.366L200.592 36.1957L199.652 35.9599L199.769 33.1302ZM201.651 33.4839L202.356 33.7197L202.239 36.0778L201.533 36.1957L201.651 33.4839ZM203.297 33.9556L205.531 34.4272L205.413 37.1389L203.179 36.7852L203.297 33.9556ZM3.29226 55.6494L4.11532 55.2957H4.8208L7.8779 127.805L6.46693 126.98V126.508H6.23177L3.29226 55.6494ZM5.76145 54.5883L12.4635 51.9944L14.8151 131.342L8.81854 128.277L5.76145 54.5883ZM13.4042 51.6407L15.8734 50.5796L18.225 133.11L15.7558 131.814L13.4042 51.6407ZM16.814 50.2259L20.6942 48.6932L23.0458 135.586L19.1656 133.582L16.814 50.2259ZM21.6348 48.3395L42.7993 39.9685L45.1509 147.023L24.104 136.058L21.6348 48.3395ZM43.74 39.6148L46.0916 38.5537L48.4432 148.673L46.0916 147.494L43.74 39.6148ZM47.0322 38.2L51.03 36.6673L53.3816 151.267L49.3838 149.263L47.0322 38.2ZM51.9706 36.3136L71.3714 28.65L73.3703 161.525L54.3222 151.739L51.9706 36.3136ZM72.312 28.2963L76.5449 26.5278L78.3086 164.119L74.3109 161.996L72.312 28.2963ZM77.4856 26.1741L81.4833 24.6414L83.5998 166.83L79.2493 164.59L77.4856 26.1741ZM103.824 15.6809L106.058 14.8556V16.2704L103.824 15.6809ZM106.998 14.5019L108.527 13.9123V16.742L106.998 16.3883V14.5019ZM76.5449 24.8772L72.1945 26.6457V22.5191L76.5449 20.7506V24.8772ZM71.2538 26.9994L51.9706 34.663L51.853 31.3617L71.2538 22.9907V26.9994ZM51.03 35.0167L47.0322 36.6673V33.4839L50.9124 31.7154L51.03 35.0167ZM46.0916 37.021L43.6224 37.9642V34.8988L46.0916 33.8377V37.021ZM42.6817 38.3179L21.6348 46.6889V44.5667H21.2821L42.6817 35.3704V38.3179ZM20.6942 47.0426L16.6964 48.6932V46.571L20.6942 44.9204V47.0426ZM15.7558 49.0469L13.4042 49.9901L13.2866 48.1037L15.7558 47.0426V49.0469ZM12.4635 50.3438L5.76145 53.0556L5.64387 51.4049L12.346 48.4574L12.4635 50.3438ZM4.8208 53.4093L3.29226 53.9988L3.17467 53.8809V52.466L4.70322 51.7586L4.8208 53.4093ZM103.706 7.54568L100.649 8.84259V6.83827L103.706 7.54568ZM1.76371 51.6407L1.29339 51.8765V51.5228L1.76371 51.287V51.6407ZM1.29339 53.2914L1.76371 53.0556V54.2346L1.41097 54.1167L1.29339 53.2914ZM107.351 7.30988L108.409 6.83827V7.66358L107.351 7.30988ZM152.62 138.77L137.687 141.599L137.922 125.093L153.09 123.089L152.62 138.77ZM136.746 141.835L135.806 141.953L136.041 125.329L136.981 125.211L136.746 141.835ZM116.17 146.787L134.865 143.132V145.726L117.581 149.145L116.17 146.787ZM135.806 143.014L136.746 142.778L136.629 145.372L135.806 145.608V143.014ZM137.687 142.66L151.561 139.949L148.622 143.014L137.569 145.254L137.687 142.66ZM115.817 157.28L115.934 148.202L116.757 149.617V154.569V154.922L115.817 157.28ZM135.688 155.63L136.511 155.512L136.393 165.533L135.57 165.651L135.688 155.63ZM137.452 155.276L152.384 151.621L152.149 161.289L137.334 165.18L137.452 155.276ZM151.796 150.796L137.452 154.215L137.569 150.796L148.739 148.438L151.796 150.796ZM136.511 154.451L135.688 154.686V151.149L136.629 151.031L136.511 154.451ZM134.747 154.922L116.052 159.402L117.698 155.04L134.747 151.385V154.922ZM152.62 140.185L152.267 149.97L149.21 147.612L149.445 143.486L152.62 140.185ZM118.051 149.97L134.865 146.669L134.747 150.442L118.051 153.979L118.286 153.507L117.698 153.272V150.914L118.404 150.56L118.051 149.97ZM135.806 146.551L136.629 146.315V149.97L135.806 150.206V146.551ZM137.569 146.198L147.446 144.193L147.211 144.547L147.916 145.136L148.504 144.547L148.387 146.787H148.269L147.681 147.494L147.799 147.612L137.569 149.852V146.198ZM153.56 139.123L154.031 138.652L153.678 138.298L154.031 123.443L154.148 123.56L154.736 122.853L153.795 160.817L153.09 160.935L153.325 151.739L153.678 151.267L153.325 150.914L153.56 139.123ZM153.325 110.002L138.157 111.417L138.392 91.7272L138.627 83.7099L153.913 83.8278L153.795 91.3735L153.325 110.002ZM137.217 111.417L136.158 111.535L136.393 91.6093L136.629 83.7099H137.687L137.452 91.7272L137.217 111.417ZM116.757 114.246L135.218 112.596V115.307L117.816 117.076L116.757 114.246ZM136.158 112.478L137.217 112.36L137.099 115.072L136.158 115.19V112.478ZM138.157 112.36L152.502 111.063L149.445 113.893H149.21L138.04 114.954L138.157 112.36ZM116.287 125.093L116.405 116.015L116.993 117.901V122.617V122.971L116.287 125.093ZM152.502 122.264L137.922 124.15L138.04 120.849L149.445 119.552L152.502 122.264ZM136.981 124.268L136.041 124.386V121.085L137.099 120.967L136.981 124.268ZM135.1 124.504L116.64 126.862L118.051 122.971L135.1 121.085V124.504ZM153.207 111.652L152.972 121.32L150.033 118.844L149.68 114.836L153.207 111.652ZM163.907 117.665L164.613 117.548L164.495 120.613L163.79 120.731L163.907 117.665ZM165.553 117.548L177.311 116.251L177.194 119.08L165.436 120.495L165.553 117.548ZM178.252 116.133H178.958L178.84 118.844H178.135L178.252 116.133ZM179.898 116.015L187.659 115.19L190.245 117.312L179.898 118.727V116.015ZM186.6 114.364L180.016 115.072L180.133 112.006L186.365 111.417L186.718 111.77L186.835 111.652L187.071 113.539L186.6 113.067L186.012 113.775L186.6 114.364ZM179.075 115.19H178.37L178.487 112.124H179.193L179.075 115.19ZM177.429 115.307L165.553 116.604L165.671 113.421L177.547 112.242L177.429 115.307ZM164.613 116.604L163.907 116.722V113.657L164.73 113.539L164.613 116.604ZM188.129 114.364L187.776 110.827L190.716 108.469V116.486L188.129 114.364ZM186.953 110.356L180.133 111.063L180.251 108.705L189.893 107.88L186.953 110.356ZM179.193 111.181H178.487L178.605 108.823L179.31 108.705L179.193 111.181ZM177.547 111.299L165.671 112.478L165.789 109.884L177.664 108.941L177.547 111.299ZM164.73 112.596H164.025V110.002L164.848 109.884L164.73 112.596ZM163.202 144.901L163.907 144.665V147.966L163.084 148.202L163.202 144.901ZM164.848 144.547L176.371 142.189L176.253 145.254L164.848 147.73V144.547ZM177.311 141.953L178.017 141.835L177.899 144.901L177.194 145.136L177.311 141.953ZM178.958 141.599L186.483 140.067L189.305 142.543L178.84 144.783L178.958 141.599ZM185.542 139.241L178.958 140.656L179.075 137.591L185.542 136.412L186.13 136.883L186.248 136.765V138.652L186.13 138.416L185.425 139.241H185.542ZM178.017 140.892L177.429 141.01L177.547 137.944L178.135 137.827L178.017 140.892ZM176.488 141.128L164.965 143.604V140.42L176.488 138.062V141.128ZM164.025 143.722L163.202 143.957L163.319 140.656L164.025 140.538V143.722ZM187.306 139.477L187.188 135.822L189.657 133.464L189.775 141.717L187.306 139.477ZM186.483 135.233L179.193 136.648V134.997L188.599 133.228L186.483 135.233ZM178.252 136.883L177.547 137.001V135.233L178.252 135.115V136.883ZM176.606 137.119L165.083 139.359V137.591L176.606 135.469V137.119ZM164.025 139.595L163.319 139.713V137.944L164.142 137.827L164.025 139.595ZM163.79 121.674H164.495L164.142 136.765L163.437 137.001L163.79 121.674ZM165.436 121.556L177.194 120.023L176.724 134.407L165.083 136.648L165.436 121.556ZM178.135 119.906L178.84 119.788L178.252 134.172L177.664 134.29L178.135 119.906ZM179.781 119.67L191.186 118.137L191.656 118.491L191.891 118.255L190.951 142.66L190.716 142.425L190.598 132.521L191.304 131.931L190.598 131.224L189.775 131.931L179.31 133.936L179.781 119.67ZM191.656 117.312V107.644L192.362 107.054L191.891 117.548L191.656 117.312ZM191.068 106.819L180.251 107.762L181.192 83.8278L191.891 83.7099L193.067 84.6531L193.302 84.4173L192.362 107.054L191.774 106.347L191.068 106.819ZM179.31 107.762L178.605 107.88L179.428 83.8278H180.251L179.31 107.762ZM177.664 107.998L165.789 108.941L166.141 90.666L166.376 83.9457L178.487 83.8278L177.664 107.998ZM164.848 108.941L164.025 109.059L164.495 90.4302L164.613 83.9457H165.436L165.201 90.666L164.848 108.941ZM163.084 149.145L163.907 149.027L163.672 158.106L162.849 158.341L163.084 149.145ZM164.848 148.791L176.253 146.315L175.9 154.804L164.613 157.87L164.848 148.791ZM177.194 146.08L177.899 145.962L177.547 154.451L176.841 154.569L177.194 146.08ZM118.168 118.019L135.218 116.251L135.1 120.141L118.404 122.028L118.521 121.674L117.933 121.556V119.67L118.639 119.434L118.168 118.019ZM136.158 116.133L137.099 116.015V120.023H136.041L136.158 116.133ZM138.04 116.015L148.151 114.954L148.034 115.072L148.622 115.779L148.857 115.661L148.975 118.137L148.504 118.727L138.04 119.906V116.015ZM154.266 110.827L154.971 110.12L154.736 122.853L154.031 122.264L154.266 110.827ZM78.4262 165.769V169.188L74.4285 166.948L74.3109 163.765L78.4262 165.769ZM79.3669 169.778V166.359L83.5998 168.481V172.136L79.3669 169.778ZM73.3703 163.293V166.477L54.4398 155.865V153.389L73.3703 163.293ZM18.225 134.761V135.704L15.8734 134.407V133.582L18.225 134.761ZM19.1656 136.294V135.233L23.1634 137.355V138.534L19.1656 136.294ZM24.104 139.006V137.827L45.1509 148.673V150.796L24.104 139.006ZM14.9327 132.993V133.936L8.93612 130.635V129.927L14.9327 132.993ZM48.5608 150.442V152.564L46.2092 151.267L46.0916 149.145L48.5608 150.442ZM49.5014 153.154V150.914L53.3816 152.918L53.4992 155.394L49.5014 153.154ZM164.73 83.0025V80.2907H165.553L165.436 83.0025H164.73ZM164.73 79.3475L164.848 75.8105H165.553V79.3475H164.73ZM164.848 74.8673L164.965 71.6839H165.671V74.8673H164.848ZM164.965 70.6228L165.318 54.5883L166.141 54.7062L165.789 70.7407L164.965 70.6228ZM165.436 53.6451L165.671 42.0907L166.376 42.3265V45.5099H166.259L166.141 46.4531L166.259 46.571V50.4617L166.141 51.287H166.259L166.141 53.763L165.436 53.6451ZM161.908 160.346L161.791 163.293L158.146 164.472L158.263 161.407L161.908 160.346ZM162.731 163.057L162.849 160.11L163.555 159.992V162.822L162.731 163.057ZM154.618 53.4093L154.266 70.1512L138.98 69.3259L139.333 51.5228L154.618 53.4093ZM152.149 163.057L152.032 166.241L137.217 170.603L137.334 166.948L152.149 163.057ZM152.972 165.887L153.09 162.822L153.795 162.586L153.678 165.769L152.972 165.887ZM166.376 83.0025L166.494 80.2907L178.605 80.5265V82.8846L166.376 83.0025ZM166.494 79.3475L166.612 75.8105L178.84 76.2821L178.722 79.5833L166.494 79.3475ZM166.612 74.8673V71.6839L178.958 72.3913L178.84 75.3389L166.612 74.8673ZM166.729 70.7407L167.082 54.8241L179.546 56.2389L178.958 71.4481L166.729 70.7407ZM167.082 53.8809L167.2 51.4049L179.663 53.0556L179.546 55.2957L167.082 53.8809ZM167.2 50.4617V46.6889L179.781 48.5753L179.663 52.1123L167.2 50.4617ZM167.317 45.7457V42.4444L179.898 44.5667L179.781 47.6321L167.317 45.7457ZM164.495 162.586V159.638L175.9 156.691L175.783 159.285L164.495 162.586ZM154.736 165.415V162.35L157.205 161.643V164.708L154.736 165.415ZM136.629 37.3747V41.1475L118.639 38.4358L117.228 34.0735L136.629 37.3747ZM136.511 42.0907V46.4531L118.756 44.213L119.227 43.1519L118.639 42.7981V40.9117L119.344 40.6759L118.992 39.379L136.511 42.0907ZM136.393 47.3963V50.2259L116.993 47.8679L118.286 45.0383L136.393 47.3963ZM136.393 51.1691L135.923 69.0901L116.405 67.9111L115.817 66.1426L114.994 66.3784L115.582 68.3827V82.5309L114.406 85.1247L114.994 51.287L115.347 51.5228L116.522 48.8111L136.393 51.1691ZM135.923 70.0333L135.806 73.8062L118.168 73.0988L116.757 68.8543L135.923 70.0333ZM135.806 74.7494V78.8759L118.521 78.4043L118.756 77.8148L118.286 77.579V75.5747L118.874 75.3389L118.521 74.042L135.806 74.7494ZM135.688 79.8191V82.7667L116.64 82.6488L118.051 79.3475L135.688 79.8191ZM136.629 82.7667V79.8191H137.804L137.687 82.7667H136.629ZM136.746 78.8759V74.7494L137.922 74.8673L137.804 78.8759H136.746ZM136.746 73.8062L136.864 70.1512H137.922V73.9241L136.746 73.8062ZM136.864 69.208L137.334 51.287L138.392 51.5228L138.04 69.208H136.864ZM137.334 50.3438V47.5142L138.51 47.75L138.392 50.4617L137.334 50.3438ZM137.452 46.571V42.3265L138.627 42.4444L138.51 46.6889L137.452 46.571ZM137.569 41.3833V37.4926L138.745 37.7284L138.627 41.5012L137.569 41.3833ZM135.57 171.075V167.42L136.393 167.302L136.276 170.839L135.57 171.075ZM138.627 82.7667L138.745 79.937L150.15 80.1728L152.855 82.7667H138.627ZM138.745 78.9938L138.863 74.8673L148.975 75.221L149.562 75.8105H149.68V78.8759L149.327 79.2296L138.745 78.9938ZM138.863 73.9241V70.2691L153.325 71.0944L149.798 74.2778L138.863 73.9241ZM139.333 50.5796L139.451 47.8679L150.621 49.2827L153.56 52.3481L139.333 50.5796ZM139.451 46.9247L139.568 42.5623L149.798 44.213L149.68 44.3309L150.268 44.9204V47.75L149.798 48.2216L139.451 46.9247ZM139.568 41.6191L139.686 37.8463L154.266 40.3222L150.738 43.3877L139.568 41.6191ZM181.662 44.9204L181.544 47.9858L180.721 47.75L180.839 44.6846L181.662 44.9204ZM181.544 48.929L181.427 52.3481L180.604 52.2302L180.721 48.8111L181.544 48.929ZM181.427 53.2914L181.309 55.5315L180.486 55.4136L180.604 53.1735L181.427 53.2914ZM181.309 56.4747L180.721 71.566H179.898L180.486 56.3568L181.309 56.4747ZM180.604 72.5093L180.486 75.3389H179.781L179.898 72.5093H180.604ZM180.486 76.2821L180.369 79.5833H179.663L179.781 76.2821H180.486ZM180.369 80.5265L180.251 82.8846H179.546V80.5265H180.369ZM177.429 156.219L177.311 158.813L176.724 158.931L176.841 156.337L177.429 156.219ZM178.37 158.459V155.983L193.773 151.857L193.655 153.979L178.37 158.459ZM181.192 82.8846L181.309 80.5265L188.482 80.6444L190.833 82.7667L181.192 82.8846ZM181.309 79.5833L181.427 76.4L187.423 76.5179L188.011 77.2253H188.129V79.1117L187.776 78.758L187.188 79.4654L187.306 79.7012L181.309 79.5833ZM181.427 75.3389L181.544 72.6272L191.539 73.0988L188.482 75.6926L181.427 75.3389ZM181.662 71.6839L182.25 56.5926L193.067 57.7716L193.185 57.8895L194.361 58.9506L193.302 83.7099L192.597 83.0025L193.067 73.0988L193.655 72.5093L193.067 71.8018L192.597 72.2735L181.662 71.6839ZM182.25 55.6494L182.367 53.4093L189.657 54.3525L192.127 56.7105L182.25 55.6494ZM182.367 52.466L182.485 49.0469L188.717 49.9901L188.599 50.108L189.187 50.8154L189.305 50.6975V52.9376L188.952 53.2914L182.367 52.466ZM182.485 48.1037L182.603 45.0383L192.127 46.6889L189.54 49.1648L182.485 48.1037ZM6.58451 128.748L7.99548 129.456V130.045L6.34935 129.22L6.58451 128.748ZM95.1227 178.502L94.8875 178.385H95.1227V178.502ZM4.93838 128.394L4.58564 128.159V128.041L4.93838 128.277V128.394ZM4.58564 129.927L4.93838 130.163L5.05596 130.87L4.58564 130.635V129.927ZM6.34935 130.87L6.81967 131.106H6.46693L6.34935 130.87ZM96.0633 180.86L98.2973 182.039L96.0633 182.629V180.86ZM116.875 45.8636L116.993 36.1957L117.816 38.7895L117.581 44.3309L116.875 45.8636ZM154.854 41.0296L154.501 51.8765L151.326 48.5753L151.209 44.213L154.854 41.0296ZM116.522 80.4086V71.2123L117.345 73.5704V78.758L116.522 80.4086ZM153.913 71.9197L153.56 82.1772L150.621 79.3475V74.8673L153.913 71.9197ZM190.245 53.5272V49.8722L192.95 47.1605L192.597 56.0031L190.245 53.5272ZM189.07 79.937V76.4L192.009 73.9241L191.656 82.1772L189.07 79.937Z" fill="#2E80B6"/>
</svg>
