<svg width="117" height="116" viewBox="0 0 117 116" fill="none" xmlns="http://www.w3.org/2000/svg">
<path d="M58.5 112C88.3234 112 112.5 87.8234 112.5 58C112.5 28.1766 88.3234 4 58.5 4C28.6766 4 4.5 28.1766 4.5 58C4.5 87.8234 28.6766 112 58.5 112Z" fill="white" stroke="#F58634" stroke-width="8"/>
<path d="M83.5479 26.4679C87.7891 28.1866 90.849 31.2781 92.3661 34.8857C93.8824 38.491 93.8558 42.6111 91.9264 46.389C89.997 50.1669 86.5264 52.8919 82.4764 54.244C78.4289 55.5946 73.8044 55.5709 69.5624 53.8515C65.3212 52.1329 62.2621 49.0421 60.745 45.4345C59.2279 41.8284 59.2554 37.7091 61.1848 33.9312C63.1142 30.1533 66.5839 27.4283 70.6339 26.0762C74.6823 24.7256 79.3067 24.7493 83.5479 26.4679ZM90.45 35.521C89.1191 32.3577 86.4299 29.6446 82.6983 28.1325C78.9667 26.6197 74.9017 26.5975 71.348 27.7837C67.7968 28.9685 64.751 31.3639 63.0527 34.688C61.3552 38.0127 61.3294 41.6329 62.6611 44.7984C63.992 47.9625 66.6812 50.6756 70.4128 52.1877C74.1444 53.6997 78.2086 53.7227 81.7631 52.5364C85.3144 51.3509 88.3602 48.9562 90.0576 45.6315C91.7559 42.3075 91.7809 38.6873 90.45 35.521ZM70.1776 45.339C69.717 45.6307 69.0778 45.5345 68.7502 45.1243C68.4227 44.714 68.53 44.1453 68.9905 43.8529L73.427 41.0301C73.1934 40.3667 73.2225 39.6284 73.5692 38.9494L73.57 38.9487C73.9433 38.2178 74.6183 37.6891 75.408 37.4255C75.8826 37.267 76.3972 37.2056 76.9118 37.2552L79.1687 32.8345C79.4031 32.3754 80.0116 32.1718 80.5278 32.3814C81.0441 32.5902 81.2718 33.1322 81.0374 33.592L78.7797 38.0127C79.1595 38.3259 79.4463 38.7132 79.6251 39.1375C79.9193 39.8372 79.9144 40.6355 79.5419 41.3663L79.5403 41.3693L79.5419 41.37C79.1679 42.1016 78.4929 42.6303 77.7031 42.8939C76.9159 43.1568 76.0181 43.1524 75.1968 42.8199C74.9873 42.7347 74.7928 42.6325 74.6141 42.5155L70.1776 45.339ZM75.5451 40.7865L75.5551 40.7991L75.5584 40.8036C75.679 40.9502 75.8444 41.0731 76.0464 41.1553C76.359 41.2819 76.6965 41.2849 76.9891 41.1871C77.28 41.0894 77.5311 40.8909 77.6732 40.6125L77.6749 40.6133C77.8154 40.3356 77.8179 40.0342 77.7081 39.7728C77.6001 39.5151 77.3773 39.2915 77.0664 39.1649L77.0639 39.1641L77.0614 39.1627C76.7497 39.0375 76.4138 39.0353 76.1212 39.133C75.8303 39.23 75.5792 39.4285 75.4379 39.7062C75.2958 39.9846 75.2924 40.2852 75.4022 40.5466C75.4379 40.631 75.4861 40.7117 75.5451 40.7865ZM81.118 29.0181C81.3533 28.5583 81.9618 28.3554 82.4772 28.5642C82.9934 28.773 83.2212 29.315 82.9868 29.7749L82.3409 31.0389C82.1064 31.4987 81.4979 31.7016 80.9817 31.4928C80.4663 31.284 80.2377 30.7419 80.473 30.2821L81.118 29.0181ZM71.9922 51.2984C71.7603 51.7582 71.1535 51.9626 70.6373 51.756C70.1219 51.5486 69.8916 51.0081 70.1244 50.5483L70.7703 49.2843C71.0022 48.8252 71.609 48.62 72.1253 48.8274C72.6406 49.034 72.8709 49.5745 72.6382 50.0344L71.9922 51.2984ZM89.0643 44.2246C89.5797 44.4334 89.8074 44.9754 89.573 45.4353C89.3386 45.8944 88.7301 46.098 88.2139 45.8884L86.7949 45.3138C86.2786 45.1043 86.0509 44.5622 86.2853 44.1031C86.5205 43.6433 87.129 43.4404 87.6444 43.6492L89.0643 44.2246ZM64.0469 36.0956C63.5306 35.8868 63.3029 35.3448 63.5381 34.8849C63.7725 34.4251 64.381 34.2222 64.8964 34.431L66.3163 35.0064C66.8317 35.2152 67.0603 35.7572 66.825 36.217C66.5906 36.6769 65.9821 36.8798 65.4659 36.671L64.0469 36.0956ZM86.7641 32.5443C87.2246 32.2518 87.8639 32.348 88.1914 32.7583C88.5189 33.1685 88.4117 33.7379 87.9512 34.0297L86.6826 34.8368C86.2221 35.1285 85.5829 35.033 85.2553 34.6228C84.9278 34.2126 85.035 33.6431 85.4956 33.3514L86.7641 32.5443ZM66.3462 47.7759C65.8857 48.0677 65.2472 47.9721 64.9189 47.5619C64.5914 47.1517 64.6994 46.5823 65.1599 46.2905L66.4285 45.4834C66.889 45.1916 67.5283 45.2872 67.8558 45.6974C68.1833 46.1076 68.0761 46.677 67.6156 46.9688L66.3462 47.7759ZM85.1057 49.2539C85.4332 49.6641 85.3252 50.2336 84.8646 50.5253C84.4041 50.817 83.7657 50.7215 83.4373 50.3113L82.5312 49.1806C82.2037 48.7704 82.3109 48.2009 82.7715 47.9092C83.232 47.6174 83.8713 47.7137 84.1988 48.1239L85.1057 49.2539ZM68.0054 31.0663C67.6779 30.656 67.7851 30.0866 68.2457 29.7949C68.7062 29.5031 69.3454 29.5986 69.673 30.0089L70.5799 31.1396C70.9074 31.5498 70.7994 32.1185 70.3388 32.411C69.8783 32.7027 69.239 32.6065 68.9115 32.1962L68.0054 31.0663ZM89.6728 38.1119C90.2347 38.0645 90.7343 38.4318 90.7867 38.9331C90.8399 39.4337 90.4276 39.8787 89.8648 39.9261L88.3128 40.0601C87.7508 40.1068 87.2512 39.7395 87.198 39.2382C87.1457 38.7376 87.558 38.2926 88.1208 38.246L89.6728 38.1119ZM63.4384 42.2083C62.8764 42.2556 62.3768 41.8876 62.3236 41.3871C62.2712 40.8858 62.6836 40.4415 63.2463 40.3941L64.7983 40.2601C65.3603 40.2127 65.8599 40.5807 65.9123 41.0812C65.9655 41.5825 65.5531 42.0268 64.9904 42.0742L63.4384 42.2083ZM78.8553 51.8441C78.9077 52.3454 78.4954 52.7897 77.9326 52.8371C77.3706 52.8845 76.871 52.5164 76.8187 52.0159L76.6682 50.6334C76.615 50.1321 77.0273 49.6878 77.5901 49.6404C78.152 49.593 78.6516 49.9611 78.7048 50.4616L78.8553 51.8441ZM74.2558 28.4761C74.2026 27.9748 74.6158 27.5305 75.1777 27.4831C75.7405 27.4357 76.2393 27.8037 76.2925 28.3043L76.4429 29.6868C76.4961 30.1881 76.083 30.6324 75.521 30.6797C74.9583 30.7271 74.4595 30.3591 74.4063 29.8586L74.2558 28.4761Z" fill="#026BAD"/>
<path d="M51.9025 67.5106L51.964 67.4784L68.909 58.5979L60.5595 54.2654L44.5865 63.6762L51.8418 67.4784L51.9025 67.5106ZM40.9309 80.2458C41.4903 80.2458 41.943 80.6498 41.943 81.148C41.943 81.6462 41.4903 82.0501 40.9309 82.0501H26.5129C25.9536 82.0501 25.5 81.6462 25.5 81.148C25.5 80.6498 25.9536 80.2458 26.5129 80.2458H40.9309ZM40.9309 69.0249C41.4903 69.0249 41.943 69.4288 41.943 69.927C41.943 70.4245 41.4903 70.8284 40.9309 70.8284H26.5129C25.9536 70.8284 25.5 70.4245 25.5 69.927C25.5 69.4288 25.9536 69.0249 26.5129 69.0249H40.9309ZM45.7306 74.6328C46.29 74.6328 46.7427 75.0368 46.7427 75.5342C46.7427 76.0324 46.29 76.4364 45.7306 76.4364H31.3126C30.7533 76.4364 30.2997 76.0324 30.2997 75.5342C30.2997 75.0368 30.7533 74.6328 31.3126 74.6328H45.7306ZM58.6116 53.2551L51.9377 49.7926L34.8993 58.5994L42.6484 62.6601L58.6116 53.2551ZM71.942 58.606H71.9444V78.2699C71.9444 78.6205 71.7197 78.9244 71.3916 79.0741L52.4307 89.0913C52.4053 89.1052 52.379 89.1176 52.3519 89.13L52.3446 89.1329L52.3282 89.1395L52.3249 89.141L52.315 89.1453L52.3019 89.1505L52.2921 89.1541L52.2781 89.1592L52.2699 89.1621L52.2675 89.1629C52.1682 89.1972 52.0657 89.2162 51.9632 89.222L51.9402 89.2228H51.9386L51.914 89.2235H51.891L51.8672 89.2228H51.8656L51.8426 89.222C51.7401 89.2162 51.6376 89.1972 51.5383 89.1629L51.5359 89.1621L51.5268 89.1592L51.5129 89.1541L51.5039 89.1505L51.4907 89.1453L51.4801 89.141L51.4768 89.1395L51.4612 89.1329L51.4538 89.13C51.4268 89.1176 51.4005 89.1052 51.3743 89.0906L43.3997 84.8764C42.919 84.6229 42.7599 84.0714 43.0437 83.6433C43.3275 83.2153 43.9475 83.0728 44.4282 83.3263L50.8904 86.7413V69.065L47.991 67.5493L33.8864 60.1794V65.7121C33.8864 66.2103 33.4328 66.6143 32.8734 66.6143C32.3149 66.6143 31.8613 66.2103 31.8613 65.7121V58.606H31.8622C31.8613 58.4533 31.9048 58.2999 31.9958 58.1582C32.0967 58.0004 32.2435 57.8806 32.4125 57.8039L51.4325 47.973C51.7622 47.8028 52.1559 47.8174 52.461 47.9818L71.4384 57.8273C71.7615 57.9938 71.942 58.2955 71.942 58.606ZM69.9194 60.1794L56.5693 67.1548L52.9154 69.065V86.7413L69.9194 77.7585V60.1794Z" fill="#026BAD"/>
</svg>
