<svg width="34" height="26" viewBox="0 0 34 26" fill="none" xmlns="http://www.w3.org/2000/svg">
<path d="M9.57346 7.38057C9.12101 7.06386 8.49748 7.17389 8.18077 7.62634C7.86405 8.07879 7.97409 8.70232 8.42654 9.01904L9.57346 7.38057ZM17 13.7998L16.4265 14.619C16.7709 14.8601 17.2291 14.8601 17.5735 14.619L17 13.7998ZM25.5735 9.01904C26.0259 8.70232 26.1359 8.07879 25.8192 7.62634C25.5025 7.17389 24.879 7.06386 24.4265 7.38057L25.5735 9.01904ZM8.42654 9.01904L16.4265 14.619L17.5735 12.9806L9.57346 7.38057L8.42654 9.01904ZM17.5735 14.619L25.5735 9.01904L24.4265 7.38057L16.4265 12.9806L17.5735 14.619ZM2 20.9998V4.9998H0V20.9998H2ZM2 4.9998C2 3.78478 2.98497 2.7998 4.2 2.7998V0.799805C1.8804 0.799805 0 2.68021 0 4.9998H2ZM4.2 2.7998H29.8V0.799805H4.2V2.7998ZM29.8 2.7998C31.0151 2.7998 32 3.78477 32 4.9998H34C34 2.68022 32.1197 0.799805 29.8 0.799805V2.7998ZM32 4.9998V20.9998H34V4.9998H32ZM32 20.9998C32 22.2149 31.0151 23.1998 29.8 23.1998V25.1998C32.1196 25.1998 34 23.3194 34 20.9998H32ZM29.8 23.1998H4.2V25.1998H29.8V23.1998ZM4.2 23.1998C2.98496 23.1998 2 22.2149 2 20.9998H0C0 23.3195 1.88041 25.1998 4.2 25.1998V23.1998Z" fill="#F27D00"/>
</svg>
