<svg width="85" height="60" viewBox="0 0 85 60" fill="none" xmlns="http://www.w3.org/2000/svg">
<path d="M80.6746 24.0825C79.6449 27.8547 77.935 30.9167 75.5544 33.2491C72.2953 36.4358 68.0536 38.0291 62.8296 38.0291C57.511 38.0291 53.0616 36.2246 49.4718 32.606C45.8915 28.9874 44.0966 24.4953 44.0966 19.1297C44.0966 13.7354 45.9293 9.19533 49.5757 5.51912C53.2411 1.84291 57.7377 0 63.0846 0C68.3559 0 72.7487 1.80451 76.2629 5.40394C78.3601 7.53479 79.9283 10.3855 80.9674 13.9466H68.8566C67.4679 11.7869 65.4558 10.7023 62.8107 10.7023C60.534 10.7023 58.6635 11.499 57.1804 13.0827C55.7067 14.6761 54.9698 16.7013 54.9698 19.1489C54.9698 21.5198 55.6878 23.4682 57.1426 25.0136C58.5974 26.5589 60.4301 27.3268 62.6501 27.3268C64.9079 27.3268 66.7028 26.6453 68.0442 25.2824C68.3937 24.9272 68.7055 24.5241 68.9794 24.0825H80.6746ZM41.4609 38.0291H31.2111V13.841C31.2111 12.6412 31.0978 11.8061 30.8616 11.3358C30.6254 10.8751 30.2098 10.6351 29.5957 10.6351C28.4621 10.6351 27.9048 11.7101 27.9048 13.8698V38.0291H17.6455V13.841C17.6455 12.6412 17.5227 11.8061 17.2771 11.3358C17.0221 10.8751 16.597 10.6351 15.9829 10.6351C14.8587 10.6351 14.2825 11.7101 14.2825 13.8698V38.0291H4.03271V11.6429C4.03271 8.40825 5.07186 5.66309 7.13126 3.39786C9.19067 1.13262 11.6941 0 14.6415 0C17.6644 0 20.3946 1.35338 22.8035 4.06015C25.4769 1.35338 28.1504 0 30.8333 0C34.2436 0 36.9642 1.31499 39.0331 3.93537C40.6485 5.97024 41.4609 8.94577 41.4609 12.8619V38.0291Z" fill="#026BAD"/>
<path d="M76.2251 59.9999C87.8919 59.9999 87.9391 42.1084 76.2817 42.1084H8.71826C-2.93909 42.1084 -2.89186 59.9999 8.77494 59.9999H76.2251Z" fill="#F58634"/>
<path d="M57.1612 55.3159C56.0654 55.3159 54.9129 54.9992 54.0627 54.2889L54.7806 52.9835C55.4419 53.5402 56.311 53.809 57.1612 53.809C57.6619 53.809 58.0492 53.7322 58.3326 53.5498C58.7483 53.2907 58.9183 52.6476 58.5688 52.2828C58.4366 52.1485 58.276 52.0525 58.0776 51.9949C57.3124 51.7453 56.585 51.7645 55.7537 51.467C55.3947 51.3326 55.0829 51.1022 54.8373 50.7759C54.2894 50.0656 54.3555 48.7026 54.809 47.9731C55.0452 47.5892 55.3947 47.3012 55.8481 47.0997C56.3016 46.8981 56.8495 46.7925 57.4824 46.7925C58.4082 46.7925 59.3718 47.1381 60.1275 47.666L59.4663 49.0002C58.8994 48.6066 58.1815 48.2995 57.4824 48.2995C57.0101 48.2995 56.6417 48.3763 56.3866 48.5394C55.9615 48.7986 55.8387 49.4225 56.1977 49.7872C56.3299 49.9216 56.5 50.0272 56.6983 50.0944C57.4919 50.3439 58.2665 50.3823 59.0695 50.7183C59.4096 50.8719 59.7024 51.1022 59.9386 51.4286C60.4487 52.1485 60.3826 53.4346 59.9197 54.1545C59.3246 55.076 58.172 55.3159 57.1612 55.3159ZM19.7897 46.8789V48.3955H15.8315V50.3247H19.1662V51.8413H15.8315V53.7226H19.7897V55.2296C17.957 55.2296 16.1149 55.2296 14.2822 55.2296V46.8789C16.1149 46.8789 17.957 46.8789 19.7897 46.8789ZM25.0799 49.5665L26.6197 46.8789H28.254L25.8923 50.9774L28.3768 55.2296H26.7425L25.0894 52.3884L23.4456 55.2296H21.8113L24.2675 50.9774L21.8775 46.8789H23.5117L25.0799 49.5665ZM31.9477 48.3955V50.4783H33.7332C34.3283 50.4783 34.6779 50.0176 34.6779 49.4417C34.6779 48.8562 34.3378 48.3955 33.7332 48.3955H31.9477ZM30.3985 46.8789C31.4943 46.8789 32.5996 46.8789 33.6954 46.8789C34.6306 46.8789 35.4808 47.2532 35.9532 48.0979C36.3877 48.8754 36.3877 50.008 35.9532 50.7855C35.4808 51.6301 34.6212 51.9949 33.6954 51.9949H31.9477V55.2296H30.3985V46.8789ZM39.8453 50.3535H41.7819C42.8493 50.3535 42.8588 48.3955 41.7819 48.3955H39.8453V50.3535ZM42.5565 51.7933L44.5214 55.2296H42.6415L40.7899 51.8701H39.8453V55.2296H38.3054V46.8693C39.5052 46.8693 40.7049 46.8693 41.9047 46.8693C42.7643 46.8693 43.5012 47.2724 43.8885 48.0595C44.2758 48.8274 44.2758 49.9216 43.8885 50.6895C43.6145 51.2462 43.1422 51.6301 42.5565 51.7933ZM52.0411 46.8789V48.3955H48.0829V50.3247H51.427V51.8413H48.0829V53.7226H52.0411V55.2296C50.2084 55.2296 48.3757 55.2296 46.543 55.2296V46.8789C48.3757 46.8789 50.2084 46.8789 52.0411 46.8789ZM65.4083 55.3159C64.3219 55.3159 63.1694 54.9992 62.3192 54.2889L63.0371 52.9835C63.689 53.5402 64.5581 53.809 65.4083 53.809C65.909 53.809 66.3057 53.7322 66.5797 53.5498C66.9954 53.2907 67.1748 52.6476 66.8159 52.2828C66.6931 52.1485 66.5325 52.0525 66.3341 51.9949C65.5594 51.7453 64.832 51.7645 64.0102 51.467C63.6417 51.3326 63.3394 51.1022 63.0844 50.7759C62.5459 50.0656 62.612 48.7026 63.0655 47.9731C63.3017 47.5892 63.6417 47.3012 64.0952 47.0997C64.5486 46.8981 65.0965 46.7925 65.7389 46.7925C66.6647 46.7925 67.6188 47.1381 68.3746 47.666L67.7228 49.0002C67.1559 48.6066 66.438 48.2995 65.7389 48.2995C65.2571 48.2995 64.8982 48.3763 64.6336 48.5394C64.2085 48.7986 64.0952 49.4225 64.4447 49.7872C64.5864 49.9216 64.747 50.0272 64.9454 50.0944C65.7389 50.3439 66.523 50.3823 67.3165 50.7183C67.6661 50.8719 67.9589 51.1022 68.1856 51.4286C68.6958 52.1485 68.6391 53.4346 68.1762 54.1545C67.5811 55.076 66.4191 55.3159 65.4083 55.3159Z" fill="#FEFEFE"/>
</svg>
