<svg width="34" height="34" viewBox="0 0 34 34" fill="none" xmlns="http://www.w3.org/2000/svg">
<circle cx="17" cy="17" r="17" fill="#D9D9D9"/>
<path d="M12.2178 15.9244C13.4978 18.44 15.56 20.4933 18.0756 21.7822L20.0311 19.8267C20.2711 19.5867 20.6267 19.5067 20.9378 19.6133C21.9333 19.9422 23.0089 20.12 24.1111 20.12C24.6 20.12 25 20.52 25 21.0089V24.1111C25 24.6 24.6 25 24.1111 25C15.7644 25 9 18.2356 9 9.88889C9 9.4 9.4 9 9.88889 9H13C13.4889 9 13.8889 9.4 13.8889 9.88889C13.8889 11 14.0667 12.0667 14.3956 13.0622C14.4933 13.3733 14.4222 13.72 14.1733 13.9689L12.2178 15.9244Z" fill="#F58634"/>
</svg>
