<svg width="116" height="116" viewBox="0 0 116 116" fill="none" xmlns="http://www.w3.org/2000/svg">
<path d="M58 112C87.8234 112 112 87.8234 112 58C112 28.1766 87.8234 4 58 4C28.1766 4 4 28.1766 4 58C4 87.8234 28.1766 112 58 112Z" fill="white" stroke="#F58634" stroke-width="8"/>
<path d="M76.4472 59.3823C76.8919 59.3823 77.2543 59.7062 77.2543 60.1036C77.2543 60.5048 76.8919 60.8286 76.4472 60.8286H51.5612V75.1037H56.2394L56.293 75.0559C57.1001 74.3346 58.2162 73.8856 59.4516 73.8856C60.6829 73.8856 61.7989 74.3346 62.6061 75.0559L62.6596 75.1037H63.5491L63.6027 75.0559C64.4098 74.3346 65.5259 73.8856 66.7613 73.8856C67.9926 73.8856 69.1086 74.3346 69.9158 75.0559L69.9693 75.1037H80.8701V62.7644C80.8701 62.7128 80.8783 62.6613 80.8906 62.6098V60.8286H79.0828C78.638 60.8286 78.2756 60.5048 78.2756 60.1036C78.2756 59.7062 78.638 59.3823 79.0828 59.3823H81.6978C82.1467 59.3823 82.5091 59.7062 82.5091 60.1036V62.0431H92.0302C92.3308 62.0431 92.5944 62.1903 92.7344 62.4074L95.6418 66.3377C95.7324 66.4592 95.7777 66.599 95.7777 66.7352V70.6508C95.7777 71.0482 95.4153 71.3721 94.9706 71.3721C94.5258 71.3721 94.1634 71.0482 94.1634 70.6508V66.9486L91.5978 63.4893H82.5091V75.1037H84.3581L84.4117 75.0559C85.1859 74.364 86.2401 73.9261 87.4097 73.8893C87.5167 73.8856 87.6197 73.8856 87.7268 73.8893C88.8963 73.9261 89.9506 74.364 90.7248 75.0559L90.7783 75.1037H94.1634V72.8184C94.1634 72.4172 94.5258 72.0934 94.9706 72.0934C95.4153 72.0934 95.7777 72.4172 95.7777 72.8184V75.8287C95.7777 75.8986 95.7695 75.9648 95.7448 76.0274V77.8748C95.7448 78.2759 95.3865 78.5961 94.9376 78.5961H91.9561C91.7914 79.4094 91.3507 80.1344 90.7248 80.6937C89.9176 81.4187 88.8016 81.864 87.5661 81.864C86.3348 81.864 85.2188 81.4187 84.4117 80.6937C83.7857 80.1344 83.3451 79.4094 83.1762 78.5961H79.997C79.5522 78.5961 79.1898 78.2759 79.1898 77.8748C79.1898 77.4773 79.5522 77.1535 79.997 77.1535H83.1762C83.2215 76.9474 83.2792 76.745 83.3574 76.55H70.97C71.0483 76.745 71.1059 76.9474 71.1512 77.1535H77.4314C77.8762 77.1535 78.2386 77.4773 78.2386 77.8748C78.2386 78.2759 77.8762 78.5961 77.4314 78.5961H71.1512C70.9824 79.4094 70.5417 80.1344 69.9158 80.6937C69.1086 81.4187 67.9926 81.864 66.7613 81.864C65.5259 81.864 64.4098 81.4187 63.6027 80.6937C63.4215 80.5318 63.2526 80.3552 63.1044 80.1638C62.9561 80.3552 62.7873 80.5318 62.6061 80.6937C61.7989 81.4187 60.6829 81.864 59.4516 81.864C58.2162 81.864 57.1001 81.4187 56.293 80.6937C55.6547 80.1233 55.2058 79.3763 55.0493 78.5446H50.7541C50.3093 78.5446 49.9469 78.2207 49.9469 77.8196V60.1036C49.9469 59.7062 50.3093 59.3823 50.7541 59.3823H76.4472ZM51.5612 76.55V77.0983H55.0699C55.1152 76.9106 55.1687 76.7266 55.2387 76.55H51.5612ZM56.606 77.7754V77.8196C56.606 77.8417 56.606 77.8674 56.606 77.8895C56.606 78.5851 56.9272 79.218 57.4378 79.6744C57.9526 80.1344 58.665 80.4177 59.4516 80.4177C60.234 80.4177 60.9465 80.1344 61.4612 79.6744C61.976 79.2143 62.2972 78.5777 62.2972 77.8748C62.2972 77.1719 61.976 76.5352 61.4612 76.0752C60.9465 75.6152 60.234 75.3319 59.4516 75.3319C58.665 75.3319 57.9526 75.6152 57.4378 76.0752L57.3678 76.1415C57.3102 76.2445 57.2319 76.3328 57.129 76.4028C56.8201 76.7929 56.6265 77.2639 56.606 77.7754ZM64.6528 76.1672C64.6034 76.2482 64.5334 76.3218 64.4551 76.3844C64.1133 76.8002 63.9115 77.3191 63.9115 77.8748C63.9115 78.5777 64.2328 79.2143 64.7475 79.6744C65.2623 80.1344 65.9747 80.4177 66.7613 80.4177C67.5437 80.4177 68.2562 80.1344 68.771 79.6744C69.2857 79.2143 69.6069 78.5777 69.6069 77.8748C69.6069 77.1719 69.2857 76.5352 68.771 76.0752C68.2562 75.6152 67.5437 75.3319 66.7613 75.3319C65.9747 75.3319 65.2623 75.6152 64.7475 76.0752C64.7146 76.1047 64.6816 76.1341 64.6528 76.1672ZM62.3384 62.7754H61.6919V71.9131H62.3384V62.7754ZM60.8806 61.3291H63.1456C63.5944 61.3291 63.9568 61.653 63.9568 62.0504V72.6343C63.9568 73.0355 63.5944 73.3593 63.1456 73.3593H60.8806C60.4358 73.3593 60.0734 73.0355 60.0734 72.6343V62.0504C60.0734 61.653 60.4358 61.3291 60.8806 61.3291ZM66.4648 62.7754H65.8182V71.9131H66.4648V62.7754ZM65.0111 61.3291H67.2761C67.7208 61.3291 68.0832 61.653 68.0832 62.0504V72.6343C68.0832 73.0355 67.7208 73.3593 67.2761 73.3593H65.0111C64.5622 73.3593 64.1998 73.0355 64.1998 72.6343V62.0504C64.1998 61.653 64.5622 61.3291 65.0111 61.3291ZM70.5953 62.7754H69.9487V71.9131H70.5953V62.7754ZM69.1375 61.3291H71.4024C71.8513 61.3291 72.2137 61.653 72.2137 62.0504V72.6343C72.2137 73.0355 71.8513 73.3593 71.4024 73.3593H69.1375C68.6927 73.3593 68.3303 73.0355 68.3303 72.6343V62.0504C68.3303 61.653 68.6927 61.3291 69.1375 61.3291ZM74.7217 62.7754H74.0751V71.9131H74.7217V62.7754ZM73.268 61.3291H75.5329C75.9777 61.3291 76.3401 61.653 76.3401 62.0504V72.6343C76.3401 73.0355 75.9777 73.3593 75.5329 73.3593H73.268C72.8191 73.3593 72.4567 73.0355 72.4567 72.6343V62.0504C72.4567 61.653 72.8191 61.3291 73.268 61.3291ZM78.8522 62.7754H78.2015V71.9131H78.8522V62.7754ZM77.3943 61.3291H79.6593C80.1082 61.3291 80.4706 61.653 80.4706 62.0504V72.6343C80.4706 73.0355 80.1082 73.3593 79.6593 73.3593H77.3943C76.9496 73.3593 76.5872 73.0355 76.5872 72.6343V62.0504C76.5872 61.653 76.9496 61.3291 77.3943 61.3291ZM59.4516 76.1304C59.9911 76.1304 60.477 76.3255 60.8312 76.642C61.1853 76.9585 61.4036 77.3927 61.4036 77.8748C61.4036 78.3569 61.1853 78.7911 60.8312 79.1076C60.477 79.4241 59.9911 79.6192 59.4516 79.6192C58.9121 79.6192 58.4221 79.4241 58.0679 79.1076C57.7179 78.7911 57.4996 78.3569 57.4996 77.8748C57.4996 77.3927 57.7179 76.9585 58.0679 76.642C58.4221 76.3255 58.9121 76.1304 59.4516 76.1304ZM59.6863 77.665C59.6246 77.6098 59.5422 77.5767 59.4516 77.5767C59.3569 77.5767 59.2745 77.6098 59.2127 77.665C59.151 77.7166 59.1139 77.7938 59.1139 77.8748C59.1139 77.9594 59.151 78.033 59.2127 78.0882C59.2745 78.1398 59.3569 78.1729 59.4516 78.1729C59.5422 78.1729 59.6246 78.1398 59.6863 78.0882C59.7481 78.033 59.7852 77.9594 59.7852 77.8748C59.7852 77.7938 59.7481 77.7166 59.6863 77.665ZM66.7613 77.5767C66.576 77.5767 66.4236 77.7092 66.4236 77.8748C66.4236 78.0404 66.5719 78.1729 66.7613 78.1729C66.9466 78.1729 67.0949 78.0404 67.0949 77.8748C67.0949 77.7092 66.9466 77.5767 66.7613 77.5767ZM65.3776 76.642C65.7318 76.3255 66.2218 76.1304 66.7613 76.1304C67.2967 76.1304 67.7867 76.3255 68.1409 76.642C68.495 76.9585 68.7133 77.3927 68.7133 77.8748C68.7133 78.3569 68.495 78.7911 68.1409 79.1076C67.7867 79.4241 67.2967 79.6192 66.7613 79.6192C66.2218 79.6192 65.7318 79.4241 65.3776 79.1076C65.0276 78.7911 64.8093 78.3569 64.8093 77.8748C64.8093 77.3927 65.0276 76.9585 65.3776 76.642ZM87.5661 75.3319H87.5291C86.759 75.3392 86.063 75.6226 85.5565 76.0752C85.0417 76.5352 84.7205 77.1719 84.7205 77.8748C84.7205 78.5777 85.0417 79.2143 85.5565 79.6744C86.0713 80.1344 86.7837 80.4177 87.5661 80.4177C88.3527 80.4177 89.0652 80.1344 89.5799 79.6744C90.0947 79.2143 90.4159 78.5777 90.4159 77.8748C90.4159 77.2786 90.1812 76.7266 89.7982 76.2924L89.7735 76.2666C89.7117 76.2004 89.6499 76.1378 89.5799 76.0752C89.0734 75.6226 88.3774 75.3392 87.6032 75.3319H87.5661ZM91.779 76.55C91.8573 76.745 91.9149 76.9474 91.9561 77.1535H94.1305V76.55H91.779ZM87.5661 77.5767C87.4755 77.5767 87.3932 77.6098 87.3314 77.665C87.2696 77.7166 87.2326 77.7938 87.2326 77.8748C87.2326 77.9594 87.2696 78.033 87.3314 78.0882C87.3932 78.1398 87.4755 78.1729 87.5661 78.1729C87.6609 78.1729 87.7432 78.1398 87.805 78.0882C87.8668 78.033 87.9038 77.9594 87.9038 77.8748C87.9038 77.7938 87.8668 77.7166 87.805 77.665C87.7432 77.6098 87.6609 77.5767 87.5661 77.5767ZM86.1866 76.642C86.5407 76.3255 87.0308 76.1304 87.5661 76.1304C88.1056 76.1304 88.5957 76.3255 88.9498 76.642C89.2999 76.9585 89.5182 77.3927 89.5182 77.8748C89.5182 78.3569 89.2999 78.7911 88.9498 79.1076C88.5957 79.4241 88.1056 79.6192 87.5661 79.6192C87.0308 79.6192 86.5407 79.4241 86.1866 79.1076C85.8324 78.7911 85.6142 78.3569 85.6142 77.8748C85.6142 77.3927 85.8324 76.9585 86.1866 76.642ZM83.9257 64.034H90.7783C91.083 64.034 91.3507 64.1849 91.4866 64.4094L93.4057 67.0811C93.4922 67.2025 93.5333 67.3387 93.5333 67.4712V69.326C93.5333 69.7234 93.1709 70.0472 92.7262 70.0472H83.9257C83.4768 70.0472 83.1144 69.7234 83.1144 69.326V64.759C83.1144 64.3578 83.4768 64.034 83.9257 64.034ZM90.3377 65.4803H84.7329V68.601H91.919V67.681L90.3377 65.4803ZM83.9587 71.7474C83.5098 71.7474 83.1515 71.4236 83.1515 71.0261C83.1515 70.6287 83.5098 70.3049 83.9587 70.3049H85.4247C85.8695 70.3049 86.2319 70.6287 86.2319 71.0261C86.2319 71.4236 85.8695 71.7474 85.4247 71.7474H83.9587ZM54.0815 62.7754H53.435V71.9131H54.0815V62.7754ZM52.6237 61.3291H54.8887C55.3376 61.3291 55.7 61.653 55.7 62.0504V72.6343C55.7 73.0355 55.3376 73.3593 54.8887 73.3593H52.6237C52.179 73.3593 51.8166 73.0355 51.8166 72.6343V62.0504C51.8166 61.653 52.179 61.3291 52.6237 61.3291ZM58.212 62.7754H57.5614V71.9131H58.212V62.7754ZM56.7542 61.3291H59.0192C59.4639 61.3291 59.8263 61.653 59.8263 62.0504V72.6343C59.8263 73.0355 59.4639 73.3593 59.0192 73.3593H56.7542C56.3053 73.3593 55.9429 73.0355 55.9429 72.6343V62.0504C55.9429 61.653 56.3053 61.3291 56.7542 61.3291ZM28.8373 57.8036C28.8373 57.4025 29.1997 57.0823 29.6445 57.0823C30.0934 57.0823 30.4558 57.4025 30.4558 57.8036V59.456L32.173 58.9223V57.8036C32.173 57.4025 32.5354 57.0823 32.9802 57.0823C33.4249 57.0823 33.7873 57.4025 33.7873 57.8036V58.4218L35.171 57.995C35.274 57.9508 35.3852 57.9287 35.5087 57.9287C35.6281 57.9287 35.7434 57.9508 35.8464 57.995L37.2713 58.4366V57.8036C37.2713 57.4025 37.6337 57.0823 38.0784 57.0823C38.5273 57.0823 38.8856 57.4025 38.8856 57.8036V58.9371L40.6029 59.4707V57.8036C40.6029 57.4025 40.9653 57.0823 41.4141 57.0823C41.8589 57.0823 42.2213 57.4025 42.2213 57.8036V59.9712L43.9344 60.5011V54.8448H27.1242V60.4901L28.8373 59.9564V57.8036ZM33.5773 60.0116C33.4291 60.1552 33.2149 60.2472 32.9802 60.2472C32.9349 60.2472 32.8896 60.2435 32.8484 60.2361L26.8894 62.0835C26.7453 62.216 26.5394 62.297 26.317 62.297C26.2841 62.297 26.2552 62.2933 26.2223 62.2933L22.0671 63.5813L26.8606 77.3817H34.6974V59.662L33.5773 60.0116ZM38.1773 60.2398C38.1443 60.2435 38.1114 60.2472 38.0784 60.2472C37.8519 60.2472 37.6501 60.1625 37.5019 60.03L36.3159 59.662V77.3817H44.1527L48.3285 65.3625V70.2239L45.5364 78.2649C45.454 78.5851 45.1328 78.8279 44.7457 78.8279H35.5087H26.2676C25.8805 78.8279 25.5593 78.5851 25.4769 78.2649L20.3787 63.5777C20.2922 63.3348 20.3622 63.0808 20.5351 62.9005L20.8275 62.5619C20.9346 62.4405 21.0746 62.3595 21.227 62.3191L25.5099 60.9905V54.8264C25.5099 54.4363 25.6869 54.0793 25.9793 53.8181C26.2676 53.5604 26.6671 53.4022 27.1077 53.4022H32.1771V53.347V46.6124C32.1771 46.215 32.3625 45.8507 32.6548 45.5857C32.9472 45.3244 33.3549 45.1625 33.8038 45.1625H37.263C37.7078 45.1625 38.1114 45.3244 38.4079 45.5857C38.7044 45.8507 38.8856 46.215 38.8856 46.6124V53.347V53.4022H43.955C44.3915 53.4022 44.791 53.5604 45.0793 53.8217V53.8181C45.3717 54.0793 45.5487 54.4363 45.5487 54.8264V61.0053L48.3285 61.8664V63.39L44.8034 62.2933C44.7828 62.297 44.7622 62.297 44.7416 62.297C44.5316 62.297 44.338 62.2234 44.1939 62.1056L38.1773 60.2398ZM24.6162 65.4251C24.4844 65.0423 24.7233 64.6412 25.1516 64.5234C25.5758 64.4057 26.0287 64.6191 26.1564 65.0018L29.5868 74.8718C29.7145 75.2509 29.4756 75.6557 29.0515 75.7698C28.6273 75.8875 28.1743 75.6741 28.0466 75.2951L24.6162 65.4251ZM37.263 46.6051H33.8038L33.7997 46.6088L33.7956 46.6124V53.347L33.8038 53.3544H37.263L37.2672 53.3507L37.2713 53.347V46.6124L37.2672 46.6088L37.263 46.6051ZM56.4495 49.7332V51.0727C56.4495 51.4922 56.2559 51.875 55.9471 52.1547C55.6382 52.4343 55.2099 52.6036 54.7363 52.6036H43.0737C42.6002 52.6036 42.1719 52.4343 41.863 52.1547C41.8424 52.1363 41.8259 52.1179 41.8054 52.0995C41.5294 51.8271 41.3606 51.4665 41.3606 51.0727V49.7332C41.3606 49.3173 41.5541 48.9346 41.863 48.6549V48.6512C42.1719 48.3752 42.6002 48.2022 43.0737 48.2022H45.9482L47.3937 45.5636C47.0807 45.4238 46.7924 45.2361 46.5495 45.0153C45.9441 44.478 45.5735 43.7346 45.5735 42.9103C45.5735 42.4503 45.6929 42.0123 45.9029 41.6186C46.1212 41.2137 46.4424 40.8605 46.8295 40.5808C47.093 40.3931 47.3195 40.268 47.5213 40.1539C47.7725 40.014 47.9579 39.9073 48.0485 39.6387C47.7066 39.5356 47.4019 39.3627 47.1507 39.1382C46.7265 38.7591 46.4671 38.2402 46.4671 37.6625V36.8749H21.0293C20.5846 36.8749 20.2222 36.5511 20.2222 36.1499C20.2222 35.7525 20.5846 35.4286 21.0293 35.4286H46.4671V34.6448C46.4671 34.2437 46.8295 33.9198 47.2742 33.9198H50.5976C51.0423 33.9198 51.4047 34.2437 51.4047 34.6448V35.4286H58.1091V34.5822C58.1091 34.1848 58.4715 33.8609 58.9162 33.8609H67.3625C67.8114 33.8609 68.1738 34.1848 68.1738 34.5822V57.9398H65.1429L63.195 56.5413L61.2512 57.9398H58.1091V36.8749H51.4047V37.6625C51.4047 38.2402 51.1412 38.7591 50.717 39.1382C50.4411 39.3884 50.0911 39.5761 49.6998 39.6755C49.5845 40.6838 49.1027 40.9598 48.3861 41.3683H48.382L48.3861 41.372C48.2132 41.4677 48.0196 41.5781 47.8343 41.7106C47.6325 41.8541 47.4678 42.0381 47.3566 42.2479C47.2495 42.4429 47.1878 42.6711 47.1878 42.9103C47.1878 43.3335 47.3813 43.7162 47.6902 43.9959C47.8137 44.1026 47.9496 44.1946 48.102 44.2682L48.1802 44.1247C48.3779 43.7677 48.8597 43.6205 49.2592 43.7935C49.428 43.8671 49.5516 43.9849 49.6298 44.1247L49.7039 44.2645C49.8563 44.1946 49.9963 44.1026 50.1158 43.9959C50.4246 43.7162 50.6182 43.3335 50.6182 42.9103C50.6182 42.5128 50.9806 42.189 51.4253 42.189C51.8742 42.189 52.2366 42.5128 52.2366 42.9103C52.2366 43.7346 51.8619 44.478 51.2606 45.0153C51.0135 45.2361 50.7294 45.4201 50.4164 45.5636L51.8619 48.2022H54.7363C55.2099 48.2022 55.6382 48.3752 55.9471 48.6512C55.9676 48.6696 55.9841 48.688 56.0047 48.7101C56.2806 48.9824 56.4495 49.3431 56.4495 49.7332ZM54.831 51.0727V49.7332C54.831 49.7148 54.8269 49.7 54.8187 49.6853L54.8022 49.6743C54.7857 49.6596 54.761 49.6485 54.7363 49.6485H43.0737C43.049 49.6485 43.0243 49.6596 43.0079 49.6743H43.0037C42.9873 49.689 42.979 49.7111 42.979 49.7332V51.0727C42.979 51.0911 42.9831 51.1095 42.9914 51.1206L43.0079 51.1353C43.0243 51.15 43.049 51.161 43.0737 51.161H54.7363C54.761 51.161 54.7857 51.15 54.8022 51.1353H54.8063C54.8228 51.1205 54.831 51.0985 54.831 51.0727ZM47.7396 48.2022H50.0705L48.905 46.0751L47.7396 48.2022ZM49.7863 35.3661H48.0814V37.6625C48.0814 37.8391 48.1638 38.001 48.2955 38.1188C48.4273 38.2329 48.6044 38.3065 48.8021 38.3065H49.0698C49.2633 38.3065 49.4445 38.2329 49.5763 38.1188C49.7081 38.001 49.7863 37.8391 49.7863 37.6625V35.3661ZM59.8469 36.1794C59.8387 36.3082 59.7975 36.4296 59.7234 36.5327V39.2191L61.906 37.6551L59.8469 36.1794ZM60.3082 52.6257L63.195 54.6939L66.0818 52.6257L63.195 50.5538L60.3082 52.6257ZM64.484 55.6176L66.5554 57.1044V54.1345L64.484 55.6176ZM61.906 55.6176L59.7234 54.0536V57.1817L61.906 55.6176ZM60.3082 46.6382L63.195 48.7064L66.0818 46.6382L63.195 44.5663L60.3082 46.6382ZM64.484 49.6301L66.5554 51.1169V48.147L64.484 49.6301ZM61.906 49.6301L59.7234 48.0661V51.1942L61.906 49.6301ZM60.3082 40.6507L63.195 42.7189L66.0818 40.6507L63.195 38.5788L60.3082 40.6507ZM64.484 43.6426L66.5554 45.1294V42.1595L64.484 43.6426ZM61.906 43.6426L59.7234 42.0786V45.2066L61.906 43.6426ZM61.2059 35.3072L63.195 36.7314L65.184 35.3072H61.2059ZM64.484 37.6551L66.5554 39.1419V36.172L64.484 37.6551Z" fill="#026BAD"/>
</svg>
