<svg width="116" height="116" viewBox="0 0 116 116" fill="none" xmlns="http://www.w3.org/2000/svg">
<path d="M58 112C87.8234 112 112 87.8234 112 58C112 28.1766 87.8234 4 58 4C28.1766 4 4 28.1766 4 58C4 87.8234 28.1766 112 58 112Z" fill="white" stroke="#F58634" stroke-width="8"/>
<path d="M56.9706 53.3946C57.3664 53.3946 57.6891 53.6809 57.6891 54.0341C57.6891 54.3873 57.3664 54.6735 56.9706 54.6735H24.4331V73.7167H30.959C31.0115 73.6649 31.0659 73.6146 31.1203 73.5661C32.107 72.6856 33.4688 72.1415 34.9732 72.1415C36.4757 72.1415 37.8375 72.6856 38.8242 73.5661C38.8786 73.6146 38.933 73.6649 38.9855 73.7167H40.4205C40.473 73.6649 40.5274 73.6146 40.5818 73.5661C41.5685 72.6856 42.9303 72.1415 44.4328 72.1415C45.9372 72.1415 47.2991 72.6856 48.2857 73.5661C48.3401 73.6146 48.3945 73.6649 48.447 73.7167H63.0295V57.4724C63.0295 57.4138 63.037 57.3586 63.0539 57.3067V54.6735H60.3865C59.9907 54.6735 59.6699 54.3873 59.6699 54.0341C59.6699 53.6809 59.9907 53.3946 60.3865 53.3946H63.7704C64.1662 53.3946 64.487 53.6809 64.487 54.0341V56.8313H77.143C77.4093 56.8313 77.6438 56.9619 77.7657 57.1561L81.5454 62.25C81.6261 62.3588 81.6636 62.481 81.6636 62.6015H81.6655V67.6636C81.6655 68.0168 81.3447 68.3031 80.9489 68.3031C80.5531 68.3031 80.2324 68.0168 80.2324 67.6636V62.7923L76.7603 58.1119H64.487V73.7167H67.3532C67.4057 73.6649 67.4601 73.6146 67.5164 73.5661C68.4486 72.7341 69.7167 72.2018 71.1254 72.1466C71.2867 72.1399 71.448 72.1415 71.6112 72.1466C73.0181 72.2018 74.2861 72.7341 75.2203 73.5661C75.2747 73.6146 75.3291 73.6649 75.3816 73.7167H80.2324V70.4659C80.2324 70.1127 80.5531 69.8264 80.9489 69.8264C81.3447 69.8264 81.6655 70.1127 81.6655 70.4659V74.3562C81.6655 74.4315 81.6505 74.5035 81.6242 74.5705V77.0028C81.6242 77.356 81.3035 77.6422 80.9077 77.6422H76.7678C76.6084 78.7303 76.0456 79.7029 75.2203 80.4411C74.2336 81.32 72.8718 81.864 71.3674 81.864C69.863 81.864 68.5012 81.32 67.5164 80.4411C66.6891 79.7029 66.1264 78.7303 65.967 77.6422H61.5701C61.1743 77.6422 60.8535 77.356 60.8535 77.0028C60.8535 76.6496 61.1743 76.3633 61.5701 76.3633H65.967C66.0382 75.8812 66.1883 75.4225 66.404 74.9957H49.3962C49.6138 75.4225 49.7638 75.8812 49.8351 76.3633H58.2443C58.6401 76.3633 58.9627 76.6496 58.9627 77.0028C58.9627 77.356 58.6401 77.6422 58.2443 77.6422H49.8351C49.6738 78.7303 49.1129 79.7029 48.2857 80.4411C47.2991 81.32 45.9372 81.864 44.4328 81.864C42.9303 81.864 41.5685 81.32 40.5818 80.4411C40.2404 80.1365 39.9441 79.7916 39.704 79.415C39.462 79.7916 39.1656 80.1365 38.8242 80.4411C37.8375 81.32 36.4757 81.864 34.9732 81.864C33.4688 81.864 32.107 81.32 31.1203 80.4411C30.2762 79.6878 29.7078 78.6868 29.5615 77.5719H23.7166C23.3208 77.5719 23 77.2857 23 76.9325V54.0341C23 53.6809 23.3208 53.3946 23.7166 53.3946H56.9706ZM24.4331 74.9957V76.293H29.5822C29.6572 75.8377 29.8035 75.4024 30.0098 74.9957H24.4331ZM30.9609 76.8806C30.9627 76.8973 30.9628 76.9157 30.9628 76.9325C30.9628 76.9576 30.9609 76.981 30.959 77.0061C30.959 77.9938 31.4092 78.8894 32.1332 79.5355C32.8611 80.185 33.8646 80.5851 34.9732 80.5851C36.0799 80.5851 37.0835 80.185 37.8113 79.5355C38.5372 78.8877 38.9855 77.9921 38.9855 77.0028C38.9855 76.0135 38.5372 75.1179 37.8113 74.47C37.0835 73.8222 36.0799 73.4221 34.9732 73.4221C33.8646 73.4221 32.8611 73.8222 32.1332 74.47C32.0864 74.5119 32.0413 74.5554 31.9963 74.5989C31.9419 74.7178 31.85 74.8166 31.7337 74.8869C31.2723 75.4493 30.989 76.1356 30.9609 76.8806ZM41.4297 74.6274C41.379 74.7228 41.304 74.8048 41.2102 74.8684C40.7131 75.4644 40.4205 76.2026 40.4205 77.0028C40.4205 77.9921 40.8688 78.8877 41.5948 79.5355C42.3226 80.185 43.3261 80.5851 44.4328 80.5851C45.5414 80.5851 46.545 80.185 47.2728 79.5355C47.9987 78.8877 48.447 77.9921 48.447 77.0028C48.447 76.0135 47.9987 75.1179 47.2728 74.47C46.545 73.8222 45.5414 73.4221 44.4328 73.4221C43.3261 73.4221 42.3226 73.8222 41.5948 74.47C41.5385 74.5219 41.4841 74.5738 41.4297 74.6274ZM39.0399 57.1895H37.543V69.5904H39.0399V57.1895ZM36.8246 55.9106H39.7584C40.1541 55.9106 40.4749 56.1969 40.4749 56.5501V70.2298C40.4749 70.5831 40.1541 70.8693 39.7584 70.8693H36.8246C36.4288 70.8693 36.1081 70.5831 36.1081 70.2298V56.5501C36.1081 56.1969 36.4288 55.9106 36.8246 55.9106ZM44.3841 57.1895H42.8853V69.5904H44.3841V57.1895ZM42.1688 55.9106H45.1006C45.4964 55.9106 45.8172 56.1969 45.8172 56.5501V70.2298C45.8172 70.5831 45.4964 70.8693 45.1006 70.8693H42.1688C41.773 70.8693 41.4522 70.5831 41.4522 70.2298V56.5501C41.4522 56.1969 41.773 55.9106 42.1688 55.9106ZM49.7282 57.1895H48.2294V69.5904H49.7282V57.1895ZM47.5129 55.9106H50.4448C50.8406 55.9106 51.1613 56.1969 51.1613 56.5501V70.2298C51.1613 70.5831 50.8406 70.8693 50.4448 70.8693H47.5129C47.1171 70.8693 46.7963 70.5831 46.7963 70.2298V56.5501C46.7963 56.1969 47.1171 55.9106 47.5129 55.9106ZM55.0723 57.1895H53.5736V69.5904H55.0723V57.1895ZM52.857 55.9106H55.7889C56.1847 55.9106 56.5055 56.1969 56.5055 56.5501V70.2298C56.5055 70.5831 56.1847 70.8693 55.7889 70.8693H52.857C52.4594 70.8693 52.1386 70.5831 52.1386 70.2298V56.5501C52.1386 56.1969 52.4594 55.9106 52.857 55.9106ZM60.4146 57.1895H58.9177V69.5904H60.4146V57.1895ZM58.1993 55.9106H61.133C61.5288 55.9106 61.8496 56.1969 61.8496 56.5501V70.2298C61.8496 70.5831 61.5288 70.8693 61.133 70.8693H58.1993C57.8035 70.8693 57.4827 70.5831 57.4827 70.2298V56.5501C57.4827 56.1969 57.8035 55.9106 58.1993 55.9106ZM34.9732 75.0425C35.5753 75.0425 36.1249 75.2618 36.5226 75.6167L36.5282 75.6217C36.924 75.9766 37.1698 76.4654 37.1698 77.0028C37.1698 77.5451 36.924 78.0356 36.5264 78.3888C36.5095 78.4039 36.4945 78.4173 36.4776 78.429C36.0818 78.7605 35.5528 78.9647 34.9732 78.9647C34.3654 78.9647 33.8158 78.7437 33.4182 78.3888C33.0205 78.0356 32.7748 77.5451 32.7748 77.0028C32.7748 76.4637 33.0224 75.9749 33.42 75.6184L33.4182 75.6167C33.8158 75.2618 34.3654 75.0425 34.9732 75.0425ZM35.5116 76.519C35.3765 76.3968 35.1852 76.3215 34.9732 76.3215C34.7612 76.3215 34.5699 76.3985 34.433 76.5223L34.4311 76.5207L34.4292 76.5223C34.2942 76.6429 34.2098 76.8136 34.2098 77.0028C34.2098 77.1919 34.2942 77.361 34.433 77.4849C34.5699 77.6088 34.7612 77.6841 34.9732 77.6841C35.172 77.6841 35.3521 77.6188 35.4853 77.51L35.5116 77.4849C35.6504 77.361 35.7366 77.1919 35.7366 77.0028C35.7366 76.8136 35.6522 76.6429 35.5153 76.5223L35.5116 76.519ZM44.4328 76.3215C44.2227 76.3215 44.0314 76.3985 43.8945 76.5223L43.8663 76.5458C43.7444 76.6646 43.6694 76.8253 43.6694 77.0028C43.6694 77.1919 43.7557 77.361 43.8945 77.4849C44.0314 77.6088 44.2227 77.6841 44.4328 77.6841C44.6467 77.6841 44.838 77.6088 44.9731 77.4882L44.9749 77.4865L44.9731 77.4849C45.1119 77.361 45.1963 77.1919 45.1963 77.0028C45.1963 76.8136 45.1119 76.6429 44.9768 76.5223L44.9731 76.519C44.838 76.3968 44.6467 76.3215 44.4328 76.3215ZM42.8797 75.6167C43.2773 75.2618 43.827 75.0425 44.4328 75.0425C45.0368 75.0425 45.5846 75.2618 45.9822 75.615L45.9879 75.6201C46.3855 75.9749 46.6313 76.4654 46.6313 77.0028C46.6313 77.5451 46.3855 78.0356 45.9879 78.3888H45.986C45.5864 78.7437 45.0387 78.9647 44.4328 78.9647C43.827 78.9647 43.2773 78.7437 42.8797 78.3888C42.482 78.0356 42.2363 77.5451 42.2363 77.0028C42.2363 76.4855 42.4651 76.0118 42.8365 75.6602C42.8497 75.6452 42.8647 75.6301 42.8797 75.6167ZM71.3674 73.4221H71.3149C70.2269 73.4338 69.244 73.8323 68.5293 74.47C67.8034 75.1179 67.3532 76.0135 67.3532 77.0028C67.3532 77.9921 67.8034 78.8877 68.5293 79.5355C69.2552 80.185 70.2588 80.5851 71.3674 80.5851C72.476 80.5851 73.4795 80.185 74.2055 79.5355C74.9314 78.8877 75.3816 77.9921 75.3816 77.0028C75.3816 76.1591 75.0533 75.3824 74.5056 74.7697L74.4831 74.7446C74.3949 74.6492 74.303 74.5571 74.2055 74.47C73.4908 73.8323 72.5079 73.4338 71.4199 73.4221H71.3674ZM76.3307 74.9957C76.5464 75.4225 76.6965 75.8812 76.7678 76.3633H80.1911V74.9957H76.3307ZM71.3674 76.3215C71.1573 76.3215 70.966 76.3985 70.8271 76.5223L70.799 76.5458C70.679 76.6646 70.6039 76.8253 70.6039 77.0028C70.6039 77.1919 70.6902 77.361 70.8271 77.4849C70.966 77.6088 71.1573 77.6841 71.3674 77.6841C71.5793 77.6841 71.7707 77.6088 71.9076 77.4882L71.9095 77.4865L71.9076 77.4849C72.0445 77.361 72.1308 77.1919 72.1308 77.0028C72.1308 76.8136 72.0464 76.6429 71.9095 76.5223L71.9076 76.519C71.7707 76.3968 71.5793 76.3215 71.3674 76.3215ZM69.8142 75.6167C70.2119 75.2618 70.7615 75.0425 71.3674 75.0425C71.9695 75.0425 72.5172 75.2618 72.9168 75.615L72.9205 75.6201C73.3182 75.9749 73.5639 76.4654 73.5639 77.0028C73.5639 77.5451 73.3182 78.0356 72.9205 78.3888H72.9187C72.521 78.7437 71.9714 78.9647 71.3674 78.9647C70.7615 78.9647 70.2119 78.7437 69.8142 78.3888C69.4166 78.0356 69.1708 77.5451 69.1708 77.0028C69.1708 76.4855 69.3978 76.0118 69.7692 75.6602C69.7842 75.6452 69.7992 75.6301 69.8142 75.6167ZM66.6516 59.4076H75.5241C75.7943 59.4076 76.0287 59.5415 76.1525 59.739L78.6473 63.2092C78.7242 63.3163 78.7599 63.4368 78.7599 63.554H78.7618V65.9511C78.7618 66.3044 78.441 66.5906 78.0452 66.5906H66.6516C66.2558 66.5906 65.9332 66.3044 65.9332 65.9511V60.047C65.9332 59.6938 66.2558 59.4076 66.6516 59.4076ZM75.134 60.6882H67.3682V65.3117H77.3268V63.7398L75.134 60.6882ZM66.6948 68.7902C66.299 68.7902 65.9782 68.504 65.9782 68.1508C65.9782 67.7976 66.299 67.5096 66.6948 67.5096H68.5931C68.9889 67.5096 69.3096 67.7976 69.3096 68.1508C69.3096 68.504 68.9889 68.7902 68.5931 68.7902H66.6948ZM28.3535 57.1895H26.8548V69.5904H28.3535V57.1895ZM26.1382 55.9106H29.0701C29.4659 55.9106 29.7866 56.1969 29.7866 56.5501V70.2298C29.7866 70.5831 29.4659 70.8693 29.0701 70.8693H26.1382C25.7424 70.8693 25.4217 70.5831 25.4217 70.2298V56.5501C25.4217 56.1969 25.7424 55.9106 26.1382 55.9106ZM33.6977 57.1895H32.1989V69.5904H33.6977V57.1895ZM31.4823 55.9106H34.4142C34.81 55.9106 35.1308 56.1969 35.1308 56.5501V70.2298C35.1308 70.5831 34.81 70.8693 34.4142 70.8693H31.4823C31.0866 70.8693 30.7639 70.5831 30.7639 70.2298V56.5501C30.7639 56.1969 31.0866 55.9106 31.4823 55.9106ZM62.0409 43.95C62.4367 43.95 62.7575 44.2363 62.7575 44.5895C62.7575 44.9427 62.4367 45.2289 62.0409 45.2289H29.5034V52.114H28.0684V44.5895C28.0684 44.2363 28.391 43.95 28.7868 43.95H62.0409ZM68.0979 55.5524V48.0278C68.0979 47.9709 68.1072 47.9157 68.1223 47.8621V45.2289H65.4567C65.061 45.2289 64.7402 44.9427 64.7402 44.5895C64.7402 44.2363 65.061 43.95 65.4567 43.95H68.8388C69.2365 43.95 69.5572 44.2363 69.5572 44.5895V47.3884H82.2113C82.4796 47.3884 82.7122 47.5189 82.836 47.7115L86.6157 52.8054C86.6945 52.9142 86.7339 53.0364 86.7339 53.1586H86.7358V58.219C86.7358 58.5739 86.415 58.8602 86.0192 58.8602C85.6215 58.8602 85.3008 58.5739 85.3008 58.219V53.3477L81.8287 48.6673H69.5572V55.5524H68.0979ZM83.1005 64.2721H85.3008V61.0213C85.3008 60.6681 85.6215 60.3818 86.0192 60.3818C86.415 60.3818 86.7358 60.6681 86.7358 61.0213V64.9116C86.7358 64.9869 86.7208 65.0606 86.6945 65.1276V67.5598C86.6945 67.9131 86.3737 68.1993 85.9761 68.1993H83.0142C83.0705 68.0286 83.1005 67.8494 83.1005 67.6636V66.9187H85.2595V65.5527H83.1005V64.2721ZM44.1102 47.7449H42.6114V52.114H41.1783V47.1055C41.1783 46.7523 41.4991 46.466 41.8949 46.466H44.8268C45.2225 46.466 45.5433 46.7523 45.5433 47.1055V52.114H44.1102V47.7449ZM49.4543 47.7449H47.9556V52.114H46.5206V47.1055C46.5206 46.7523 46.8414 46.466 47.239 46.466H50.1709C50.5667 46.466 50.8874 46.7523 50.8874 47.1055V52.114H49.4543V47.7449ZM54.7966 47.7449H53.2978V52.114H51.8647V47.1055C51.8647 46.7523 52.1855 46.466 52.5813 46.466H55.5132C55.909 46.466 56.2316 46.7523 56.2316 47.1055V52.114H54.7966V47.7449ZM60.1407 47.7449H58.642V52.8255C58.5951 52.7736 58.5444 52.7234 58.4919 52.6765C58.1562 52.3768 57.7078 52.1743 57.2089 52.1257V47.1055C57.2089 46.7523 57.5296 46.466 57.9254 46.466H60.8573C61.2531 46.466 61.5739 46.7523 61.5739 47.1055V52.114H60.3865C60.3039 52.114 60.2214 52.119 60.1407 52.1274V47.7449ZM65.4849 47.7449H63.9861V52.1241C63.9148 52.1174 63.8436 52.114 63.7704 52.114H62.553V47.1055C62.553 46.7523 62.8738 46.466 63.2696 46.466H66.2014C66.5972 46.466 66.918 46.7523 66.918 47.1055V55.5524H65.9201V54.0341C65.9201 53.5988 65.7588 53.1971 65.4849 52.8757V47.7449ZM71.72 49.9646H80.5925C80.8627 49.9646 81.099 50.0969 81.2209 50.2944L83.7157 53.7646C83.7926 53.8717 83.8283 53.9922 83.8283 54.1094H83.8302V56.5065C83.8302 56.8598 83.5094 57.146 83.1136 57.146H79.4746L78.9606 56.4513C78.7955 56.2186 78.5742 56.0177 78.3153 55.8671H82.3971V54.2952L80.2024 51.2436H72.4366V55.5524H71.0035V50.6041C71.0035 50.2509 71.3242 49.9646 71.72 49.9646ZM33.4219 47.7449H31.925V52.114H30.49V47.1055C30.49 46.7523 30.8108 46.466 31.2066 46.466H34.1403C34.5361 46.466 34.8569 46.7523 34.8569 47.1055V52.114H33.4219V47.7449ZM38.7661 47.7449H37.2673V52.114H35.8342V47.1055C35.8342 46.7523 36.155 46.466 36.5507 46.466H39.4826C39.8784 46.466 40.1992 46.7523 40.1992 47.1055V52.114H38.7661V47.7449ZM68.73 33.8609C69.1258 33.8609 69.4466 34.1472 69.4466 34.5004C69.4466 34.8536 69.1258 35.1399 68.73 35.1399H36.1906V42.6711H34.7575V34.5004C34.7575 34.1472 35.0782 33.8609 35.474 33.8609H68.73ZM74.7869 46.1078V37.9387C74.7869 37.8818 74.7963 37.8266 74.8113 37.773V35.1399H72.144C71.7482 35.1399 71.4274 34.8536 71.4274 34.5004C71.4274 34.1472 71.7482 33.8609 72.144 33.8609H75.5279C75.9237 33.8609 76.2444 34.1472 76.2444 34.5004V37.2993H88.9004C89.1687 37.2993 89.4013 37.4299 89.5251 37.6224L93.3029 42.7163C93.3836 42.8251 93.423 42.9473 93.423 43.0695V48.1316C93.423 48.4848 93.1022 48.7711 92.7064 48.7711C92.3106 48.7711 91.9899 48.4848 91.9899 48.1316V43.2587L88.5178 38.5782H76.2444V46.1078H74.7869ZM88.1689 54.1831H91.9899V50.9322C91.9899 50.579 92.3106 50.2927 92.7064 50.2927C93.1022 50.2927 93.423 50.579 93.423 50.9322V54.8242C93.423 54.8995 93.4098 54.9715 93.3817 55.0385V57.4708C93.3817 57.824 93.061 58.1102 92.6652 58.1102H88.1689V56.8313H91.9486V55.4637H88.1689V54.1831ZM50.7993 37.6558H49.3005V42.6711H47.8655V37.0164C47.8655 36.6632 48.1863 36.3769 48.584 36.3769H51.5158C51.9116 36.3769 52.2324 36.6632 52.2324 37.0164V42.6711H50.7993V37.6558ZM56.1415 37.6558H54.6428V42.6711H53.2097V37.0164C53.2097 36.6632 53.5304 36.3769 53.9262 36.3769H56.8581C57.2539 36.3769 57.5765 36.6632 57.5765 37.0164V42.6711H56.1415V37.6558ZM61.4857 37.6558H59.9869V42.6711H58.5538V37.0164C58.5538 36.6632 58.8746 36.3769 59.2704 36.3769H62.2022C62.598 36.3769 62.9188 36.6632 62.9188 37.0164V42.8368C62.6506 42.7297 62.3542 42.6711 62.0409 42.6711H61.4857V37.6558ZM66.8298 37.6558H65.3311V42.6744C64.8509 42.6979 64.4138 42.8653 64.0687 43.1281C64.0218 43.1599 63.9786 43.1951 63.9355 43.2319C63.9223 43.2436 63.9092 43.2553 63.898 43.2687V37.0164C63.898 36.6632 64.2187 36.3769 64.6145 36.3769H67.5464C67.9422 36.3769 68.2629 36.6632 68.2629 37.0164V42.6711H66.8298V37.6558ZM72.174 37.6558H70.6752V43.5884C70.5852 43.4595 70.4801 43.339 70.3601 43.2319C70.0618 42.9657 69.6735 42.7766 69.2402 42.7046V37.0164C69.2402 36.6632 69.561 36.3769 69.9568 36.3769H72.8905C73.2863 36.3769 73.6071 36.6632 73.6071 37.0164V46.1078H72.174V37.6558ZM78.4091 39.8755H87.2816C87.5517 39.8755 87.7881 40.0095 87.91 40.207L90.4048 43.6772C90.4817 43.7826 90.5174 43.9031 90.5174 44.022H90.5192V46.4175C90.5192 46.7707 90.1985 47.0569 89.8027 47.0569H84.0665L84.029 47.0084C83.8433 46.7456 83.5901 46.5263 83.2881 46.3706C82.9692 46.2032 82.6015 46.1078 82.2113 46.1078H77.6926V40.515C77.6926 40.1618 78.0133 39.8755 78.4091 39.8755ZM86.8915 41.1545H79.1257V45.778H89.0861V44.2061L86.8915 41.1545ZM40.111 37.6558H38.6122V42.6711H37.1791V37.0164C37.1791 36.6632 37.4999 36.3769 37.8957 36.3769H40.8276C41.2234 36.3769 41.5441 36.6632 41.5441 37.0164V42.6711H40.111V37.6558ZM45.4551 37.6558H43.9564V42.6711H42.5233V37.0164C42.5233 36.6632 42.844 36.3769 43.2398 36.3769H46.1717C46.5675 36.3769 46.8883 36.6632 46.8883 37.0164V42.6711H45.4551V37.6558Z" fill="#026BAD"/>
</svg>
